<svg width="17" height="19" viewBox="0 0 17 19" fill="none" xmlns="http://www.w3.org/2000/svg">
<path d="M11.1865 8.7598C11.1865 8.19914 10.766 7.74361 10.2755 7.74361C9.74984 7.74361 9.32935 8.19914 9.32935 8.7598C9.32935 9.28542 9.74984 9.74095 10.2755 9.74095C10.766 9.74095 11.1865 9.28542 11.1865 8.7598ZM6.98159 7.74361C6.49101 7.74361 6.07052 8.19914 6.07052 8.7598C6.07052 9.28542 6.49101 9.74095 6.98159 9.74095C7.5072 9.74095 7.89266 9.28542 7.89266 8.7598C7.9277 8.19914 7.5072 7.74361 6.98159 7.74361ZM16.4777 2.06693C16.4777 1.05074 15.6368 0.209751 14.6206 0.209751H2.60144C1.58524 0.209751 0.779297 1.05074 0.779297 2.06693V14.1912C0.779297 15.2424 1.58524 16.0484 2.60144 16.0484H12.7634L12.3078 14.4014C14.9359 16.8193 14.2001 16.1885 16.4777 18.1508V2.06693ZM13.9197 10.5819C13.9197 10.5819 13.1488 11.8785 11.1515 11.9485C11.1515 11.9485 10.8361 11.5631 10.5558 11.2127C11.7472 10.8973 12.2027 10.1614 12.2027 10.1614C11.8173 10.4067 11.4669 10.5469 11.1515 10.6871C9.22422 11.493 7.08671 11.2127 5.5449 10.3717C5.5449 10.3367 5.33465 10.2315 5.19449 10.1264C5.19449 10.1264 5.61498 10.8623 6.77134 11.2127C6.49101 11.5281 6.17564 11.9485 6.17564 11.9485C4.17829 11.8785 3.44243 10.5819 3.44243 10.5819C3.44243 7.67352 4.70391 5.36081 4.70391 5.36081C6.00043 4.37965 7.22688 4.41469 7.22688 4.41469L7.332 4.51982C5.7201 4.97535 4.98424 5.67618 4.98424 5.67618C4.98424 5.67618 5.15945 5.57105 5.50986 5.43089C7.57729 4.51982 10.0652 4.51982 12.2027 5.67618C12.2027 5.67618 11.5019 5.01039 9.96009 4.55486L10.1003 4.41469C10.1003 4.41469 11.3267 4.37965 12.6232 5.36081C12.6232 5.36081 13.9197 7.67352 13.9197 10.5819Z" fill="white"/>
</svg>
