<svg width="164" height="32" viewBox="0 0 164 32" fill="none" xmlns="http://www.w3.org/2000/svg">
<path d="M15.4628 0.515625L20.0981 9.59848L30.1688 11.2001L22.9628 18.4153L24.5516 28.4881L15.4628 23.8644L6.37399 28.4881L7.96273 18.4153L0.756803 11.2001L10.8275 9.59848L15.4628 0.515625Z" fill="#ff4839"/>
<path d="M48.5973 0.515625L53.2326 9.59848L63.3033 11.2001L56.0974 18.4153L57.6861 28.4881L48.5973 23.8644L39.5085 28.4881L41.0973 18.4153L33.8913 11.2001L43.962 9.59848L48.5973 0.515625Z" fill="#ff4839"/>
<path d="M81.7318 0.515625L86.3671 9.59848L96.4378 11.2001L89.2319 18.4153L90.8206 28.4881L81.7318 23.8644L72.643 28.4881L74.2318 18.4153L67.0258 11.2001L77.0965 9.59848L81.7318 0.515625Z" fill="#ff4839"/>
<path d="M114.866 0.515625L119.502 9.59848L129.572 11.2001L122.366 18.4153L123.955 28.4881L114.866 23.8644L105.778 28.4881L107.366 18.4153L100.16 11.2001L110.231 9.59848L114.866 0.515625Z" fill="#ff4839"/>
<path d="M148.001 0.515625L152.636 9.59848L162.707 11.2001L155.501 18.4153L157.09 28.4881L148.001 23.8644L138.912 28.4881L140.501 18.4153L133.295 11.2001L143.366 9.59848L148.001 0.515625Z" fill="#ff4839"/>
</svg>
