<svg width="3330" height="59" viewBox="0 0 3330 59" fill="none" xmlns="http://www.w3.org/2000/svg">
<path d="M10.3852 32.8251C10.6589 32.1054 10.8986 31.7969 11.378 31.4197C12.063 30.9053 13.0565 30.5963 14.1529 30.5957C16.5857 30.5942 18.1628 32.1351 18.1642 34.5336C18.1657 36.9321 16.5904 38.4064 14.0549 38.408C12.6158 38.4089 11.5876 37.9983 10.9018 37.1421C10.5589 36.6969 10.3873 36.2858 10.1469 35.3266L1.92415 36.4623C2.7484 39.5799 3.50304 40.95 5.21717 42.4566C7.41123 44.3397 10.5299 45.3315 14.3675 45.3292C22.0084 45.3245 26.5631 41.2443 26.5589 34.4257C26.5567 30.8622 25.3216 28.1561 22.8192 26.3416C21.0709 25.0407 18.5349 24.3226 15.8623 24.3243C13.9778 24.3254 12.1278 24.8405 10.7578 25.7665L11.0296 21.8602L18.9103 21.8554C21.2746 21.854 23.0221 21.9214 25.0095 22.0915L25.0052 14.9988C23.3264 15.2054 22.1271 15.2404 18.8378 15.2424L4.20694 15.2513L2.77809 32.076L10.3852 32.8251ZM42.5856 45.1407C46.9372 45.138 50.5339 43.4226 52.8619 40.2004C54.6079 37.8008 55.5993 34.0654 55.5967 29.8509C55.595 27.1097 55.1137 24.4032 54.2214 22.0395C53.6723 20.5664 52.7805 19.1964 51.5806 17.9979C49.3178 15.7721 46.199 14.5747 42.6012 14.5769C37.9413 14.5798 34.0707 16.638 31.8458 20.3741C30.5108 22.6021 29.6565 26.2689 29.6587 29.9009C29.6604 32.6421 30.1074 35.2802 31.034 37.6781C31.5831 39.1511 32.4748 40.5554 33.6405 41.6854C35.9376 43.9797 38.9878 45.1429 42.5856 45.1407ZM42.6156 38.185C39.6004 38.1868 38.1254 35.5151 38.122 29.8958C38.1185 24.2422 39.5902 21.5002 42.6055 21.4983C45.655 21.4965 47.0957 24.2025 47.0992 29.8561C47.1026 35.5439 45.6994 38.1831 42.6156 38.185ZM71.0437 45.1233C75.3952 45.1207 78.9919 43.4053 81.3199 40.183C83.0659 37.7835 84.0573 34.0481 84.0548 29.8336C84.0531 27.0924 83.5718 24.3858 82.6794 22.0221C82.1303 20.5491 81.2386 19.1791 80.0386 17.9806C77.7758 15.7548 74.6571 14.5574 71.0593 14.5596C66.3994 14.5624 62.5288 16.6207 60.3039 20.3568C58.9689 22.5848 58.1145 26.2516 58.1168 29.8836C58.1184 32.6248 58.5655 35.2628 59.4921 37.6608C60.0412 39.1338 60.9329 40.5381 62.0986 41.6681C64.3957 43.9624 67.4459 45.1255 71.0437 45.1233ZM71.0737 38.1677C68.0584 38.1695 66.5834 35.4978 66.58 29.8785C66.5766 24.2249 68.0483 21.4828 71.0635 21.481C74.113 21.4791 75.5538 24.1851 75.5572 29.8387C75.5607 35.5266 74.1575 38.1658 71.0737 38.1677ZM109.321 20.6011L103.908 21.4267C102.469 21.6332 101.235 21.771 99.7619 21.8062L100.828 28.6584C101.616 28.4523 101.616 28.4523 105.111 27.8334L110.49 27.0078L111.109 30.5366L104.017 31.6374C102.304 31.9126 101.276 32.016 100.008 32.051L101.074 38.8347C102.616 38.4226 103.575 38.2164 104.877 38.01L112.278 36.8748L113.206 42.1167C113.55 44.0353 113.687 45.0288 113.688 46.1596L121.328 44.9214C120.916 43.7567 120.916 43.7567 120.401 40.8788L119.438 35.774L126.804 34.6388C129.751 34.2258 129.751 34.2258 130.505 34.2254L129.301 27.476C128.102 27.8194 126.835 28.0943 125.498 28.3007L118.235 29.4358L117.582 25.907L123.954 24.9095C126.695 24.4966 126.695 24.4966 127.586 24.4276L126.451 17.6782C125.458 18.0214 124.499 18.2276 122.785 18.5028L116.379 19.5003L116.069 17.7873C115.794 16.4854 115.657 15.2177 115.587 14.1213L108.153 15.2566C108.565 16.4898 108.668 16.9352 109.046 19.0251L109.321 20.6011ZM141.703 24.9329L139.613 25.2768C138.483 25.4831 137.523 25.5522 136.256 25.5873L137.322 31.7542C138.281 31.4452 139.548 31.1361 140.439 30.9985L142.7 30.5859L144.867 43.0911C145.039 44.1532 145.108 44.7699 145.143 45.9691L151.96 44.7657C151.583 43.8065 151.583 43.8065 151.239 41.8879L148.902 29.52L155.343 28.3853C153.939 30.6133 152.706 31.9161 150.617 33.3908C152.845 34.5887 153.702 35.2392 155.691 37.191C157.403 35.6138 158.259 34.7224 159.149 33.5226C160.518 31.7058 161.819 29.2722 162.606 26.9418C163.084 25.4339 163.084 25.4339 163.495 24.9882L159.758 21.564C159.348 21.9069 158.971 22.0442 158.251 22.1817L147.836 23.9013L147.423 21.7771C147.286 20.9549 147.148 19.9613 147.113 19.0362L140.638 20.0338C140.947 20.8559 141.119 21.4726 141.325 22.706L141.703 24.9329ZM173.258 21.2474C174.458 21.0754 175.04 21.0408 177.85 21.0391L190.802 21.0312C193.611 21.0295 194.194 21.0634 195.393 21.234L195.389 14.4839C194.087 14.7245 193.402 14.7592 190.695 14.7609L177.949 14.7686C175.276 14.7703 174.556 14.7364 173.254 14.4974L173.258 21.2474ZM170.42 29.918C171.756 29.7459 172.27 29.7113 175.525 29.7093L190.224 29.7004C188.993 32.4765 187.589 34.1563 185.054 35.9054C182.691 37.5172 180.362 38.5123 176.319 39.6112C178.856 42.3166 179.576 43.344 180.88 46.1872C186.156 44.0253 188.793 42.5161 191.19 40.3902C194.478 37.4758 196.737 33.8424 198.516 28.5646C199.029 26.9881 199.029 26.9881 199.474 26.3711L196.388 23.1179C195.771 23.4266 195.395 23.5297 194.332 23.5303L175.624 23.5074C172.575 23.5093 171.889 23.4755 170.416 23.2365L170.42 29.918ZM214.268 13.4445C214.132 14.6095 213.79 15.6034 213.003 17.2486C210.915 21.6357 208.107 24.9268 203.758 28.0817C206.466 29.7248 207.22 30.3411 209.586 32.9094C211.367 31.4692 212.325 30.5778 213.627 29.1036C215.407 27.0467 216.331 25.8469 217.29 24.3044L225.582 24.2308C224.042 28.3777 222.502 30.8114 219.762 33.4515C216.817 36.2629 213.392 38.2866 208.631 39.9342C211.236 42.4339 212.025 43.4613 213.534 46.2016C219.323 43.5254 223.193 40.7819 226.309 37.2165C229.425 33.6169 231.718 29.1954 233.496 23.4379C234.043 21.6559 234.146 21.4502 234.591 20.7989L231.231 17.5116C230.58 17.8889 230.238 17.9919 229.518 17.9923L220.473 18.1006C220.61 17.8264 220.61 17.8264 220.746 17.4152C220.917 17.0724 221.054 16.6955 221.191 16.3527C221.568 15.4959 221.807 14.9818 221.91 14.7761L214.268 13.4445ZM248.738 13.355C248.225 15.2055 247.746 16.3708 246.753 18.1874C244.563 22.1977 242.509 24.5974 238.296 28.0607C241.141 29.6694 242.067 30.3884 244.192 32.6142C247.72 29.3913 250.048 26.5459 251.965 23.084L260.599 23.0445C259.847 25.3407 259.299 26.506 258.17 28.2884C256.25 26.9876 255.633 26.611 252.343 24.8656L248.063 30.0078C250.599 31.3768 252.039 32.3011 253.993 33.8418C252.383 35.3847 251.15 36.2763 249.027 37.4768C247.177 38.5059 245.704 39.1578 242.826 40.1532C245.432 42.79 246.084 43.6462 247.627 46.2836C256.876 42.0977 262.389 36.5436 266.119 27.8039C266.803 26.1588 267.932 23.0743 268.342 21.7035C268.616 20.8125 268.684 20.6754 269.163 20.2296L265.666 16.7368C265.084 17.1141 264.81 17.217 264.091 17.2175L254.702 17.326C255.386 15.7151 255.626 15.2353 255.934 14.7212L248.738 13.355ZM276.603 26.2899L276.607 33.4854L302.648 33.4695L302.643 26.274L276.603 26.2899Z" fill="#ff4839"/>
<path d="M345.919 19.4569L349.193 25.8628L356.298 26.9885L351.218 32.0818L352.343 39.1874L345.929 35.9293L339.519 39.1952L340.635 32.0883L335.548 27.0011L342.652 25.8668L345.919 19.4569Z" fill="#ff4839"/>
<path d="M405.006 13.19L405.009 18.5715L394.599 18.5779L394.603 24.2919C395.904 22.7535 397.58 21.9837 399.63 21.9824C401.943 21.981 403.689 22.631 404.867 23.9324C406.059 25.2199 406.656 27.706 406.658 31.3907L406.661 36.1904C406.663 38.573 406.546 40.3253 406.311 41.4475C406.09 42.5558 405.606 43.5881 404.859 44.5443C404.111 45.4867 403.066 46.2146 401.723 46.728C400.393 47.2274 398.766 47.4778 396.84 47.4789C394.679 47.4803 392.774 47.1074 391.126 46.3604C389.477 45.5995 388.305 44.4713 387.612 42.9757C386.918 41.4801 386.571 39.167 386.569 36.0364L386.568 34.2079L394.962 34.2028L394.963 36.3014C394.965 38.4762 395.042 40.0207 395.195 40.9348C395.348 41.849 395.874 42.3058 396.775 42.3052C397.19 42.305 397.523 42.1732 397.772 41.9098C398.035 41.6465 398.173 41.3624 398.187 41.0577C398.214 40.7529 398.241 39.43 398.268 37.089L398.263 30.4192C398.263 29.1586 398.131 28.2999 397.867 27.8429C397.604 27.386 397.167 27.1577 396.558 27.1581C396.17 27.1583 395.844 27.2762 395.581 27.5119C395.318 27.7475 395.145 28.0039 395.062 28.281C394.993 28.5442 394.959 29.1676 394.96 30.1511L386.648 30.1561L386.991 13.2009L405.006 13.19ZM430.195 24.5611L430.202 35.7813C430.204 38.3301 430.066 40.1863 429.79 41.3501C429.513 42.5138 428.939 43.6016 428.067 44.6133C427.195 45.6251 426.143 46.3529 424.91 46.7969C423.678 47.241 422.3 47.4634 420.776 47.4644C418.767 47.4656 417.098 47.238 415.768 46.7817C414.438 46.3116 413.378 45.585 412.587 44.602C411.797 43.6189 411.236 42.5873 410.903 41.507C410.569 40.4129 410.402 38.6815 410.401 36.3128L410.394 24.5731C410.392 21.4841 410.653 19.1706 411.179 17.6327C411.718 16.0948 412.777 14.8613 414.356 13.9323C415.948 13.0032 417.873 12.538 420.131 12.5366C421.974 12.5355 423.622 12.86 425.077 13.5102C426.532 14.1465 427.62 14.9285 428.341 15.8561C429.061 16.7838 429.547 17.8293 429.797 18.9928C430.061 20.1562 430.194 22.0123 430.195 24.5611ZM421.799 21.7404C421.798 19.9534 421.707 18.8384 421.527 18.3952C421.36 17.9382 420.959 17.7099 420.321 17.7103C419.698 17.7107 419.283 17.9533 419.075 18.4383C418.881 18.9094 418.785 20.0107 418.786 21.7422L418.796 38.1569C418.797 40.1101 418.888 41.2875 419.068 41.6891C419.263 42.0907 419.671 42.2913 420.295 42.2909C420.918 42.2905 421.327 42.0548 421.52 41.5837C421.714 41.1126 421.81 40.0529 421.809 38.4045L421.799 21.7404ZM453.861 24.5467L453.868 35.7669C453.869 38.3157 453.732 40.1719 453.455 41.3357C453.179 42.4994 452.605 43.5872 451.733 44.5989C450.861 45.6106 449.808 46.3385 448.576 46.7825C447.343 47.2266 445.965 47.449 444.441 47.45C442.433 47.4512 440.763 47.2236 439.433 46.7673C438.103 46.2972 437.043 45.5706 436.253 44.5876C435.463 43.6045 434.901 42.5729 434.568 41.4926C434.235 40.3985 434.068 38.6671 434.066 36.2984L434.059 24.5587C434.057 21.4697 434.319 19.1562 434.844 17.6183C435.384 16.0804 436.443 14.8469 438.021 13.9179C439.614 12.9888 441.539 12.5236 443.797 12.5222C445.639 12.5211 447.288 12.8456 448.743 13.4958C450.197 14.1321 451.285 14.9141 452.006 15.8417C452.727 16.7694 453.212 17.8149 453.462 18.9784C453.726 20.1418 453.859 21.9979 453.861 24.5467ZM445.465 21.7259C445.463 19.939 445.373 18.824 445.192 18.3808C445.026 17.9238 444.624 17.6955 443.987 17.6959C443.364 17.6963 442.948 17.9389 442.741 18.4239C442.547 18.895 442.451 19.9963 442.452 21.7278L442.462 38.1425C442.463 40.0957 442.554 41.2731 442.734 41.6747C442.928 42.0763 443.337 42.2769 443.96 42.2765C444.584 42.2761 444.992 42.0404 445.186 41.5693C445.379 41.0982 445.476 40.0384 445.475 38.39L445.465 21.7259ZM486.774 27.8096L478.026 27.8149L478.022 21.9555C478.021 20.2516 477.924 19.192 477.73 18.7766C477.549 18.3473 477.141 18.1328 476.503 18.1332C475.783 18.1336 475.326 18.3902 475.132 18.9028C474.939 19.4155 474.843 20.5237 474.844 22.2275L474.853 37.8527C474.854 39.4872 474.952 40.5538 475.146 41.0524C475.34 41.5509 475.777 41.8 476.455 41.7996C477.106 41.7992 477.529 41.5496 477.722 41.0508C477.93 40.552 478.033 39.3814 478.032 37.5391L478.029 33.3211L486.777 33.3158L486.778 34.6248C486.78 38.1017 486.532 40.5675 486.034 42.0223C485.55 43.4771 484.464 44.7521 482.774 45.8475C481.099 46.9428 479.028 47.4912 476.563 47.4927C474 47.4943 471.887 47.0315 470.225 46.1045C468.562 45.1774 467.46 43.8967 466.918 42.2625C466.377 40.6144 466.106 38.142 466.104 34.8452L466.098 25.0171C466.096 22.593 466.178 20.7783 466.344 19.5731C466.509 18.354 467 17.1832 467.817 16.0607C468.647 14.9381 469.789 14.0578 471.244 13.4198C472.711 12.7678 474.394 12.4413 476.292 12.4401C478.869 12.4385 480.995 12.9359 482.672 13.9322C484.349 14.9286 485.451 16.1746 485.978 17.6703C486.505 19.1522 486.77 21.4653 486.772 24.6097L486.774 27.8096ZM510.867 13.1255L510.887 46.7654L502.139 46.7707L502.131 32.6415L499.513 32.6431L499.521 46.7723L490.774 46.7776L490.753 13.1378L499.501 13.1324L499.508 25.163L502.126 25.1614L502.119 13.1308L510.867 13.1255ZM530.356 13.1136L535.384 46.7505L526.428 46.7559L525.988 40.7097L522.851 40.7116L522.335 46.7584L513.276 46.7639L517.702 13.1213L530.356 13.1136ZM525.735 34.7465C525.29 30.9375 524.844 26.235 524.397 20.639C523.514 27.0669 522.963 31.77 522.743 34.7484L525.735 34.7465ZM537.71 13.1092L543.902 13.1054C548.03 13.1029 550.821 13.2605 552.276 13.5782C553.745 13.8959 554.936 14.7124 555.851 16.0278C556.78 17.3294 557.246 19.4138 557.247 22.2812C557.249 24.8993 556.925 26.6587 556.274 27.5595C555.624 28.4603 554.343 29.0013 552.431 29.1825C554.163 29.6109 555.327 30.185 555.923 30.905C556.519 31.6249 556.886 32.2896 557.025 32.899C557.178 33.4946 557.255 35.1498 557.257 37.8649L557.262 46.7371L549.138 46.7421L549.131 35.5634C549.13 33.7626 548.984 32.6476 548.693 32.2184C548.416 31.7892 547.674 31.5749 546.469 31.5756L546.478 46.7437L537.731 46.749L537.71 13.1092ZM546.461 18.8594L546.466 26.3395C547.449 26.3389 548.135 26.2069 548.523 25.9435C548.924 25.6662 549.125 24.7865 549.124 23.3043L549.123 21.455C549.122 20.3884 548.928 19.689 548.54 19.3568C548.165 19.0246 547.473 18.8588 546.461 18.8594ZM576.606 13.0855L581.634 46.7223L572.679 46.7277L572.239 40.6816L569.101 40.6835L568.586 46.7302L559.526 46.7358L563.952 13.0932L576.606 13.0855ZM571.986 34.7184C571.54 30.9093 571.094 26.2068 570.647 20.6108C569.765 27.0387 569.214 31.7419 568.994 34.7202L571.986 34.7184ZM604.395 27.738L595.647 27.7433L595.644 21.8838C595.642 20.18 595.545 19.1204 595.351 18.705C595.17 18.2756 594.762 18.0612 594.124 18.0616C593.404 18.062 592.947 18.3186 592.754 18.8312C592.56 19.3438 592.464 20.4521 592.465 22.1559L592.474 37.7811C592.475 39.4156 592.573 40.4822 592.767 40.9807C592.961 41.4793 593.398 41.7284 594.076 41.728C594.728 41.7276 595.15 41.478 595.343 40.9792C595.551 40.4804 595.654 39.3098 595.653 37.4675L595.65 33.2495L604.398 33.2442L604.399 34.5532C604.401 38.0301 604.153 40.4959 603.655 41.9507C603.171 43.4054 602.085 44.6805 600.396 45.7759C598.72 46.8712 596.65 47.4196 594.184 47.4211C591.621 47.4227 589.508 46.9599 587.846 46.0328C586.183 45.1058 585.081 43.8251 584.54 42.1909C583.998 40.5428 583.727 38.0704 583.725 34.7736L583.719 24.9455C583.717 22.5214 583.799 20.7067 583.965 19.5015C584.13 18.2824 584.621 17.1116 585.438 15.989C586.268 14.8665 587.411 13.9862 588.865 13.3481C590.333 12.6962 592.015 12.3696 593.913 12.3685C596.49 12.3669 598.616 12.8643 600.293 13.8606C601.97 14.857 603.072 16.103 603.599 17.5987C604.126 19.0805 604.391 21.3937 604.393 24.5381L604.395 27.738ZM625.994 13.0554L625.998 19.7875L620.804 19.7907L620.82 46.6984L612.073 46.7038L612.056 19.796L606.882 19.7992L606.878 13.067L625.994 13.0554ZM628.84 13.0537L643.426 13.0448L643.43 19.7769L637.592 19.7805L637.596 26.1594L643.06 26.156L643.064 32.5557L637.6 32.5591L637.604 39.9561L644.024 39.9522L644.029 46.6843L628.861 46.6935L628.84 13.0537ZM647.394 13.0424L653.586 13.0386C657.714 13.0361 660.505 13.1937 661.96 13.5114C663.428 13.8291 664.62 14.6457 665.535 15.9611C666.464 17.2626 666.929 19.347 666.931 22.2144C666.933 24.8325 666.608 26.5919 665.958 27.4927C665.307 28.3935 664.026 28.9345 662.115 29.1157C663.847 29.5441 665.011 30.1182 665.607 30.8382C666.203 31.5581 666.57 32.2228 666.709 32.8322C666.862 33.4278 666.939 35.083 666.941 37.7981L666.946 46.6703L658.822 46.6753L658.815 35.4966C658.814 33.6959 658.668 32.5809 658.377 32.1516C658.099 31.7224 657.358 31.5081 656.153 31.5088L656.162 46.6769L647.415 46.6822L647.394 13.0424ZM656.145 18.7926L656.15 26.2727C657.133 26.2721 657.819 26.1401 658.207 25.8767C658.608 25.5994 658.808 24.7197 658.808 23.2375L658.806 21.3883C658.806 20.3216 658.611 19.6222 658.223 19.29C657.849 18.9578 657.156 18.792 656.145 18.7926ZM689.725 23.1979L681.6 23.2029L681.599 20.7095C681.598 19.5459 681.494 18.8049 681.286 18.4864C681.078 18.1679 680.731 18.0088 680.247 18.0091C679.72 18.0095 679.319 18.2244 679.042 18.654C678.779 19.0836 678.648 19.7347 678.648 20.6074C678.649 21.7294 678.802 22.5743 679.107 23.142C679.398 23.7098 680.223 24.395 681.581 25.1976C685.475 27.5085 687.928 29.4048 688.94 30.8863C689.952 32.3679 690.459 34.7571 690.461 38.0539C690.462 40.4503 690.179 42.2166 689.612 43.3528C689.059 44.489 687.979 45.4455 686.373 46.2222C684.766 46.985 682.896 47.3671 680.763 47.3684C678.422 47.3698 676.42 46.9278 674.757 46.0422C673.109 45.1567 672.027 44.0284 671.514 42.6574C671.001 41.2863 670.743 39.3403 670.742 36.8192L670.74 34.6167L678.865 34.6117L678.867 38.705C678.868 39.9656 678.979 40.7759 679.201 41.1359C679.437 41.4959 679.845 41.6757 680.427 41.6754C681.009 41.675 681.438 41.4462 681.715 40.9889C682.006 40.5316 682.151 39.8528 682.15 38.9524C682.149 36.9715 681.878 35.6765 681.337 35.0674C680.783 34.4582 679.418 33.4409 677.242 32.0155C675.067 30.5762 673.625 29.5312 672.919 28.8806C672.212 28.23 671.622 27.3299 671.151 26.1805C670.693 25.031 670.463 23.5629 670.462 21.7759C670.461 19.1994 670.785 17.3154 671.436 16.1237C672.1 14.932 673.166 14.0033 674.634 13.3375C676.102 12.6578 677.874 12.3174 679.952 12.3161C682.224 12.3147 684.157 12.6806 685.75 13.4138C687.357 14.147 688.418 15.0744 688.931 16.1961C689.458 17.304 689.722 19.1946 689.724 21.8681L689.725 23.1979Z" fill="#ff4839"/>
<path d="M730.737 19.2226L734.011 25.6285L741.117 26.7542L736.036 31.8475L737.161 38.9531L730.747 35.695L724.337 38.9609L725.453 31.8539L720.367 26.7668L727.471 25.6325L730.737 19.2226Z" fill="#ff4839"/>
<path d="M780.2 32.3564C780.473 31.6367 780.713 31.3281 781.192 30.9509C781.877 30.4366 782.871 30.1276 783.967 30.1269C786.4 30.1254 787.977 31.6664 787.979 34.0649C787.98 36.4634 786.405 37.9377 783.869 37.9392C782.43 37.9401 781.402 37.5296 780.716 36.6734C780.373 36.2281 780.202 35.8171 779.961 34.8578L771.738 35.9935C772.563 39.1111 773.317 40.4812 775.031 41.9878C777.226 43.871 780.344 44.8627 784.182 44.8604C791.823 44.8558 796.377 40.7755 796.373 33.957C796.371 30.3935 795.136 27.6873 792.634 25.8729C790.885 24.5719 788.349 23.8539 785.677 23.8555C783.792 23.8567 781.942 24.3717 780.572 25.2977L780.844 21.3914L788.725 21.3866C791.089 21.3852 792.836 21.4526 794.824 21.6228L794.82 14.5301C793.141 14.7367 791.941 14.7717 788.652 14.7737L774.021 14.7826L772.592 31.6072L780.2 32.3564ZM812.4 44.6719C816.751 44.6693 820.348 42.9539 822.676 39.7316C824.422 37.332 825.414 33.5966 825.411 29.3821C825.409 26.641 824.928 23.9344 824.036 21.5707C823.487 20.0977 822.595 18.7277 821.395 17.5291C819.132 15.3033 816.013 14.106 812.416 14.1082C807.756 14.111 803.885 16.1692 801.66 19.9054C800.325 22.1334 799.471 25.8002 799.473 29.4322C799.475 32.1733 799.922 34.8114 800.848 37.2093C801.397 38.6824 802.289 40.0867 803.455 41.2167C805.752 43.511 808.802 44.6741 812.4 44.6719ZM812.43 37.7162C809.415 37.7181 807.94 35.0464 807.936 29.427C807.933 23.7734 809.405 21.0314 812.42 21.0296C815.469 21.0277 816.91 23.7337 816.913 29.3873C816.917 35.0752 815.514 37.7144 812.43 37.7162ZM858.972 25.4556L864.625 24.5612C865.79 24.3892 867.161 24.2171 868.052 24.1823L867.192 18.9403L868.357 18.597C867.807 16.6443 867.361 15.5481 866.469 13.8354L862.632 14.8314C863.25 16.0645 863.559 16.8524 863.902 18.0515L863.422 18.1546L857.769 19.0146L857.46 17.3358C857.185 16.034 857.047 14.7663 856.978 13.6699L849.543 14.8051C849.955 16.0384 850.058 16.5523 850.436 18.5736L850.711 20.1154L845.298 20.9753C843.859 21.1817 842.626 21.3195 841.152 21.3547L842.219 28.2069C843.041 28.0008 843.041 28.0008 846.501 27.382L851.88 26.5563L852.499 30.0852L845.407 31.186C843.694 31.4611 842.666 31.5645 841.399 31.5996L842.465 38.3832C844.006 37.9711 844.966 37.765 846.268 37.5586L853.668 36.4234L854.596 41.6652C854.94 43.5838 855.078 44.5774 855.079 45.7081L862.719 44.4699C862.307 43.3052 862.307 43.3052 861.791 40.4273L860.829 35.3225L868.195 34.1873C871.141 33.7744 871.141 33.7744 871.895 33.7739L870.692 27.0246C869.493 27.368 868.225 27.6428 866.889 27.8492L859.626 28.9844L858.972 25.4556ZM867.257 13.6293C868.183 15.4105 868.698 16.7465 869.11 18.3909L872.879 17.2237C872.261 15.1339 871.815 14.072 870.923 12.6677L867.257 13.6293ZM883.06 24.4815L880.97 24.8254C879.839 25.0317 878.88 25.1008 877.612 25.1358L878.678 31.3027C879.637 30.9938 880.905 30.6846 881.795 30.547L884.057 30.1345L886.223 42.6396C886.395 43.7017 886.464 44.3184 886.499 45.5177L893.317 44.3143C892.939 43.3551 892.939 43.3551 892.595 41.4365L890.258 29.0685L896.699 27.9339C895.295 30.1619 894.063 31.4647 891.973 32.9393C894.201 34.1372 895.058 34.7877 897.047 36.7396C898.759 35.1624 899.615 34.271 900.505 33.0712C901.875 31.2544 903.175 28.8208 903.962 26.4904C904.441 24.9824 904.441 24.9824 904.852 24.5368L901.115 21.1126C900.704 21.4555 900.327 21.5928 899.607 21.7303L889.192 23.4498L888.78 21.3257C888.642 20.5034 888.505 19.5099 888.47 18.5847L881.994 19.5824C882.303 20.4045 882.475 21.0212 882.681 22.2545L883.06 24.4815ZM911.394 21.0378C914.959 22.9202 917.941 25.1798 921.061 28.3987L925.82 22.0912C922.597 19.2835 921.226 18.3249 916.016 15.3129L911.394 21.0378ZM914.115 44.2673C914.903 43.9927 915.108 43.9583 915.999 43.7522C916.445 43.6492 916.719 43.5805 916.821 43.5804C918.5 43.2367 918.98 43.0994 920.282 42.7559C927.099 40.7987 931.689 38.1576 935.524 34.0435C937.955 31.4037 939.667 28.7301 941.686 24.4458C938.635 22.2547 937.778 21.4672 935.618 18.9672C934.626 21.6747 933.736 23.5598 932.401 25.6507C929.765 29.8668 926.854 32.3356 922.401 34.1543C919.181 35.4926 915.823 36.2484 911.986 36.5934L914.115 44.2673ZM961.178 17.6839C961.315 17.4097 961.315 17.4097 961.452 16.9984C961.623 16.6557 961.76 16.2787 961.896 15.9359C962.273 15.0791 962.512 14.565 962.615 14.3594L954.973 13.0277C954.837 14.1928 954.495 15.1866 953.708 16.8318C951.62 21.2189 948.813 24.51 944.463 27.6649C947.171 29.308 947.925 29.9243 950.291 32.4927C952.072 31.0525 953.031 30.161 954.332 28.6869C956.112 26.6299 957.037 25.4301 957.995 23.8876L966.287 23.8141C964.748 27.961 963.207 30.3947 960.468 33.0347C957.523 35.8461 954.097 37.8698 949.336 39.5174C951.941 42.0171 952.73 43.0446 954.239 45.7848C960.028 43.1086 963.899 40.3651 967.014 36.7998C970.062 33.2687 972.697 28.2302 974.202 23.0554C974.68 21.4104 974.68 21.3419 975.125 20.8277L972.897 18.7047L973.89 18.3957C973.341 16.5115 972.826 15.2783 972.037 13.9424L968.577 14.8012C969.16 15.9658 969.366 16.4454 969.71 17.5759L961.178 17.6839ZM972.86 13.7364C973.648 14.9351 974.129 16.0656 974.85 18.4979L978.139 17.3994C977.761 15.7207 977.143 14.282 976.217 12.8434L972.86 13.7364Z" fill="#ff4839"/>
<path d="M1017.55 19.048L1020.83 25.4539L1027.93 26.5795L1022.85 31.6729L1023.98 38.7784L1017.56 35.5204L1011.15 38.7862L1012.27 31.6793L1007.18 26.5921L1014.29 25.4579L1017.55 19.048Z" fill="#ff4839"/>
<path d="M1076.28 12.7812L1076.29 18.1628L1065.88 18.1691L1065.88 23.8831C1067.18 22.3447 1068.86 21.5749 1070.91 21.5737C1073.22 21.5723 1074.96 22.2222 1076.14 23.5236C1077.33 24.8112 1077.93 27.2972 1077.93 30.9819L1077.94 35.7817C1077.94 38.1642 1077.82 39.9166 1077.59 41.0388C1077.37 42.1471 1076.88 43.1793 1076.13 44.1356C1075.39 45.078 1074.34 45.8059 1073 46.3192C1071.67 46.8187 1070.04 47.069 1068.12 47.0702C1065.96 47.0715 1064.05 46.6987 1062.4 45.9517C1060.75 45.1908 1059.58 44.0626 1058.89 42.567C1058.19 41.0713 1057.85 38.7583 1057.84 35.6277L1057.84 33.7992L1066.24 33.7941L1066.24 35.8927C1066.24 38.0675 1066.32 39.6119 1066.47 40.5261C1066.62 41.4402 1067.15 41.897 1068.05 41.8965C1068.47 41.8962 1068.8 41.7644 1069.05 41.5011C1069.31 41.2377 1069.45 40.9537 1069.46 40.6489C1069.49 40.3442 1069.52 39.0213 1069.54 36.6802L1069.54 30.0104C1069.54 28.7499 1069.41 27.8911 1069.14 27.4342C1068.88 26.9772 1068.44 26.7489 1067.83 26.7493C1067.45 26.7495 1067.12 26.8675 1066.86 27.1031C1066.59 27.3388 1066.42 27.5951 1066.34 27.8722C1066.27 28.1355 1066.23 28.7588 1066.24 29.7423L1057.92 29.7474L1058.27 12.7922L1076.28 12.7812ZM1101.47 24.1523L1101.48 35.3725C1101.48 37.9213 1101.34 39.7776 1101.07 40.9413C1100.79 42.1051 1100.22 43.1928 1099.34 44.2046C1098.47 45.2163 1097.42 45.9442 1096.19 46.3882C1094.95 46.8322 1093.58 47.0547 1092.05 47.0556C1090.04 47.0568 1088.37 46.8293 1087.04 46.373C1085.71 45.9028 1084.65 45.1762 1083.86 44.1932C1083.07 43.2102 1082.51 42.1786 1082.18 41.0983C1081.85 40.0042 1081.68 38.2728 1081.68 35.9041L1081.67 24.1644C1081.67 21.0754 1081.93 18.7619 1082.45 17.224C1082.99 15.6861 1084.05 14.4526 1085.63 13.5235C1087.22 12.5945 1089.15 12.1293 1091.41 12.1279C1093.25 12.1268 1094.9 12.4513 1096.35 13.1015C1097.81 13.7378 1098.9 14.5197 1099.62 15.4474C1100.34 16.3751 1100.82 17.4206 1101.07 18.584C1101.34 19.7474 1101.47 21.6035 1101.47 24.1523ZM1093.07 21.3316C1093.07 19.5447 1092.98 18.4296 1092.8 17.9865C1092.64 17.5295 1092.23 17.3012 1091.6 17.3015C1090.97 17.3019 1090.56 17.5446 1090.35 18.0295C1090.16 18.5006 1090.06 19.6019 1090.06 21.3334L1090.07 37.7482C1090.07 39.7014 1090.16 40.8787 1090.34 41.2803C1090.54 41.6819 1090.95 41.8825 1091.57 41.8821C1092.19 41.8818 1092.6 41.646 1092.8 41.1749C1092.99 40.7039 1093.09 39.6441 1093.09 37.9957L1093.07 21.3316ZM1134.03 25.1299L1125.28 25.1352L1125.28 22.0808C1125.28 20.1553 1125.19 18.9503 1125.03 18.4655C1124.86 17.9808 1124.47 17.7386 1123.84 17.739C1123.3 17.7394 1122.94 17.9474 1122.74 18.363C1122.55 18.7787 1122.45 19.8454 1122.45 21.5631L1122.46 37.7077C1122.46 39.2176 1122.56 40.2149 1122.76 40.6996C1122.95 41.1704 1123.34 41.4057 1123.92 41.4053C1124.56 41.4049 1124.99 41.1346 1125.21 40.5942C1125.44 40.0538 1125.56 39.001 1125.56 37.4357L1125.56 33.4463L1123.79 33.4474L1123.79 28.3359L1134.03 28.3297L1134.04 46.3859L1128.54 46.3893L1127.72 43.9795C1127.13 45.0188 1126.37 45.8019 1125.46 46.3288C1124.56 46.8419 1123.49 47.0988 1122.26 47.0996C1120.79 47.1005 1119.41 46.7481 1118.13 46.0424C1116.85 45.3229 1115.88 44.4369 1115.22 43.3846C1114.55 42.3322 1114.13 41.2312 1113.97 40.0816C1113.8 38.9181 1113.72 37.1797 1113.71 34.8664L1113.71 24.8721C1113.71 21.6584 1113.88 19.3242 1114.22 17.8696C1114.57 16.4149 1115.56 15.0845 1117.19 13.8783C1118.84 12.6583 1120.97 12.0476 1123.57 12.046C1126.13 12.0444 1128.26 12.5695 1129.95 13.6212C1131.64 14.673 1132.74 15.9259 1133.26 17.3801C1133.77 18.8204 1134.03 20.9188 1134.03 23.6754L1134.03 25.1299ZM1153.39 12.7343L1158.41 46.3711L1149.46 46.3765L1149.02 40.3304L1145.88 40.3323L1145.37 46.379L1136.31 46.3845L1140.73 12.742L1153.39 12.7343ZM1148.77 34.3672C1148.32 30.5581 1147.87 25.8556 1147.43 20.2596C1146.54 26.6875 1145.99 31.3907 1145.77 34.369L1148.77 34.3672ZM1180.27 12.7179L1180.29 46.3578L1172.63 46.3624L1168.07 31.0725L1168.08 46.3652L1160.76 46.3697L1160.74 12.7298L1168.05 12.7253L1172.97 27.8696L1172.96 12.7224L1180.27 12.7179ZM1204.74 25.0868L1195.99 25.0921L1195.99 22.0377C1195.98 20.1123 1195.9 18.9072 1195.73 18.4225C1195.57 17.9378 1195.17 17.6956 1194.55 17.696C1194.01 17.6963 1193.64 17.9043 1193.45 18.32C1193.25 18.7357 1193.16 19.8023 1193.16 21.52L1193.17 37.6646C1193.17 39.1745 1193.27 40.1718 1193.46 40.6565C1193.66 41.1274 1194.04 41.3626 1194.63 41.3623C1195.26 41.3619 1195.69 41.0915 1195.91 40.5511C1196.15 40.0108 1196.27 38.9579 1196.27 37.3926L1196.26 33.4032L1194.5 33.4043L1194.49 28.2929L1204.74 28.2866L1204.75 46.3429L1199.24 46.3462L1198.43 43.9365C1197.83 44.9757 1197.08 45.7588 1196.17 46.2858C1195.27 46.7988 1194.2 47.0558 1192.97 47.0565C1191.5 47.0574 1190.12 46.705 1188.83 45.9993C1187.56 45.2798 1186.59 44.3939 1185.92 43.3415C1185.26 42.2891 1184.84 41.1882 1184.67 40.0385C1184.51 38.8751 1184.42 37.1367 1184.42 34.8234L1184.41 24.8291C1184.41 21.6154 1184.58 19.2812 1184.93 17.8265C1185.27 16.3718 1186.26 15.0414 1187.9 13.8353C1189.55 12.6153 1191.67 12.0045 1194.28 12.0029C1196.84 12.0014 1198.96 12.5264 1200.66 13.5782C1202.35 14.6299 1203.45 15.8829 1203.96 17.337C1204.47 18.7773 1204.73 20.8758 1204.73 23.6323L1204.74 25.0868ZM1227.53 22.8704L1219.4 22.8754L1219.4 20.382C1219.4 19.2184 1219.3 18.4774 1219.09 18.1589C1218.88 17.8405 1218.53 17.6814 1218.05 17.6817C1217.52 17.682 1217.12 17.8969 1216.84 18.3265C1216.58 18.7561 1216.45 19.4072 1216.45 20.2799C1216.45 21.4019 1216.6 22.2468 1216.91 22.8146C1217.2 23.3823 1218.02 24.0675 1219.38 24.8701C1223.28 27.181 1225.73 29.0773 1226.74 30.5588C1227.75 32.0404 1228.26 34.4296 1228.26 37.7264C1228.26 40.1228 1227.98 41.8891 1227.41 43.0253C1226.86 44.1616 1225.78 45.118 1224.17 45.8947C1222.57 46.6575 1220.7 47.0396 1218.57 47.0409C1216.22 47.0423 1214.22 46.6003 1212.56 45.7148C1210.91 44.8292 1209.83 43.701 1209.32 42.3299C1208.8 40.9589 1208.55 39.0128 1208.54 36.4917L1208.54 34.2892L1216.67 34.2843L1216.67 38.3776C1216.67 39.6381 1216.78 40.4484 1217 40.8084C1217.24 41.1684 1217.65 41.3483 1218.23 41.3479C1218.81 41.3475 1219.24 41.1187 1219.52 40.6614C1219.81 40.2041 1219.95 39.5253 1219.95 38.6249C1219.95 36.6441 1219.68 35.349 1219.14 34.7399C1218.58 34.1307 1217.22 33.1134 1215.04 31.688C1212.87 30.2487 1211.43 29.2037 1210.72 28.5531C1210.01 27.9025 1209.42 27.0025 1208.95 25.853C1208.49 24.7036 1208.27 23.2354 1208.26 21.4485C1208.26 18.872 1208.59 16.9879 1209.24 15.7962C1209.9 14.6045 1210.97 13.6758 1212.44 13.01C1213.9 12.3303 1215.68 11.9899 1217.75 11.9886C1220.03 11.9872 1221.96 12.3531 1223.55 13.0863C1225.16 13.8195 1226.22 14.747 1226.73 15.8687C1227.26 16.9765 1227.52 18.8672 1227.53 21.5406L1227.53 22.8704Z" fill="#ff4839"/>
<path d="M1268.37 18.8952L1271.65 25.3011L1278.75 26.4268L1273.67 31.5201L1274.8 38.6257L1268.38 35.3676L1261.97 38.6335L1263.09 31.5266L1258 26.4394L1265.11 25.3051L1268.37 18.8952Z" fill="#ff4839"/>
<path d="M1317.41 31.9419C1317.69 31.2224 1317.93 30.914 1318.41 30.5371C1319.09 30.0231 1320.09 29.7148 1321.18 29.7148C1323.61 29.7148 1325.19 31.2567 1325.19 33.6552C1325.19 36.0536 1323.61 37.527 1321.08 37.527C1319.64 37.527 1318.61 37.1158 1317.93 36.2592C1317.58 35.8138 1317.41 35.4026 1317.17 34.4432L1308.95 35.5739C1309.77 38.692 1310.53 40.0626 1312.24 41.5702C1314.43 43.4547 1317.55 44.4484 1321.39 44.4484C1329.03 44.4484 1333.59 40.3709 1333.59 33.5524C1333.59 29.9889 1332.35 27.282 1329.85 25.466C1328.1 24.164 1325.57 23.4444 1322.89 23.4444C1321.01 23.4444 1319.16 23.9584 1317.79 24.8835L1318.06 20.9774H1325.94C1328.31 20.9774 1330.06 21.0459 1332.04 21.2172V14.1245C1330.36 14.3301 1329.17 14.3644 1325.88 14.3644H1311.25L1309.81 31.1881L1317.41 31.9419ZM1349.61 44.2771C1353.96 44.2771 1357.55 42.5639 1359.88 39.343C1361.63 36.9445 1362.63 33.2097 1362.63 28.9952C1362.63 26.2541 1362.15 23.5472 1361.26 21.183C1360.71 19.7096 1359.82 18.339 1358.62 17.1398C1356.36 14.9126 1353.24 13.7134 1349.64 13.7134C1344.98 13.7134 1341.11 15.7692 1338.88 19.504C1337.54 21.7312 1336.69 25.3975 1336.69 29.0295C1336.69 31.7706 1337.13 34.409 1338.06 36.8075C1338.61 38.2808 1339.5 39.6857 1340.66 40.8164C1342.96 43.1121 1346.01 44.2771 1349.61 44.2771ZM1349.64 37.3214C1346.62 37.3214 1345.15 34.6488 1345.15 29.0295C1345.15 23.3759 1346.62 20.6347 1349.64 20.6347C1352.69 20.6347 1354.13 23.3416 1354.13 28.9952C1354.13 34.6831 1352.72 37.3214 1349.64 37.3214ZM1378.06 44.2771C1382.42 44.2771 1386.01 42.5639 1388.34 39.343C1390.09 36.9445 1391.08 33.2097 1391.08 28.9952C1391.08 26.2541 1390.6 23.5472 1389.71 21.183C1389.17 19.7096 1388.27 18.339 1387.08 17.1398C1384.81 14.9126 1381.7 13.7134 1378.1 13.7134C1373.44 13.7134 1369.57 15.7692 1367.34 19.504C1366 21.7312 1365.15 25.3975 1365.15 29.0295C1365.15 31.7706 1365.59 34.409 1366.52 36.8075C1367.06 38.2808 1367.96 39.6857 1369.12 40.8164C1371.42 43.1121 1374.47 44.2771 1378.06 44.2771ZM1378.1 37.3214C1375.08 37.3214 1373.61 34.6488 1373.61 29.0295C1373.61 23.3759 1375.08 20.6347 1378.1 20.6347C1381.15 20.6347 1382.59 23.3416 1382.59 28.9952C1382.59 34.6831 1381.18 37.3214 1378.1 37.3214ZM1416.36 19.7781L1410.94 20.6005C1409.5 20.8061 1408.27 20.9431 1406.8 20.9774L1407.86 27.8302C1408.65 27.6246 1408.65 27.6246 1412.14 27.0079L1417.52 26.1855L1418.14 29.7148L1411.04 30.8112C1409.33 31.0853 1408.3 31.1881 1407.04 31.2224L1408.1 38.0067C1409.64 37.5955 1410.6 37.39 1411.9 37.1844L1419.3 36.0536L1420.23 41.2961C1420.57 43.2149 1420.71 44.2085 1420.71 45.3393L1428.35 44.1057C1427.94 42.9408 1427.94 42.9408 1427.42 40.0626L1426.46 34.9572L1433.83 33.8265C1436.78 33.4153 1436.78 33.4153 1437.53 33.4153L1436.33 26.6652C1435.13 27.0079 1433.86 27.282 1432.53 27.4876L1425.26 28.6183L1424.61 25.0891L1430.99 24.0954C1433.73 23.6843 1433.73 23.6843 1434.62 23.6157L1433.49 16.8657C1432.49 17.2083 1431.53 17.4139 1429.82 17.688L1423.41 18.6817L1423.11 16.9685C1422.83 15.6664 1422.69 14.3986 1422.63 13.3022L1415.19 14.4329C1415.6 15.6664 1415.7 16.1119 1416.08 18.202L1416.36 19.7781ZM1448.74 24.1297L1446.65 24.4723C1445.51 24.6779 1444.56 24.7464 1443.29 24.7807L1444.35 30.9483C1445.31 30.6399 1446.58 30.3315 1447.47 30.1945L1449.73 29.7833L1451.89 42.2897C1452.06 43.3519 1452.13 43.9687 1452.16 45.1679L1458.98 43.9687C1458.6 43.0093 1458.6 43.0093 1458.26 41.0905L1455.93 28.7211L1462.37 27.5904C1460.97 29.8176 1459.73 31.1196 1457.64 32.593C1459.87 33.7922 1460.73 34.4432 1462.72 36.3963C1464.43 34.8201 1465.29 33.9293 1466.18 32.73C1467.55 30.914 1468.85 28.4812 1469.64 26.1513C1470.12 24.6437 1470.12 24.6437 1470.53 24.1982L1466.79 20.7718C1466.38 21.1144 1466 21.2515 1465.29 21.3885L1454.87 23.1018L1454.46 20.9774C1454.32 20.155 1454.18 19.1614 1454.15 18.2362L1447.67 19.2299C1447.98 20.0522 1448.15 20.669 1448.36 21.9025L1448.74 24.1297ZM1480.29 20.4634C1481.49 20.2921 1482.07 20.2578 1484.88 20.2578H1497.84C1500.65 20.2578 1501.23 20.2921 1502.43 20.4634V13.7134C1501.13 13.9532 1500.44 13.9875 1497.73 13.9875H1484.99C1482.31 13.9875 1481.59 13.9532 1480.29 13.7134V20.4634ZM1477.45 29.1323C1478.79 28.9609 1479.3 28.9267 1482.55 28.9267H1497.25C1496.02 31.7021 1494.62 33.381 1492.08 35.1285C1489.72 36.7389 1487.39 37.7326 1483.34 38.8291C1485.88 41.5359 1486.6 42.5639 1487.9 45.4078C1493.18 43.2491 1495.81 41.7415 1498.21 39.6171C1501.5 36.7047 1503.76 33.0727 1505.55 27.796C1506.06 26.2198 1506.06 26.2198 1506.51 25.6031L1503.42 22.3479C1502.8 22.6563 1502.43 22.7591 1501.37 22.7591L1482.66 22.7249C1479.61 22.7249 1478.92 22.6906 1477.45 22.4507V29.1323ZM1521.31 12.6854C1521.17 13.8504 1520.83 14.8441 1520.04 16.4888C1517.95 20.8746 1515.14 24.164 1510.79 27.3163C1513.49 28.9609 1514.25 29.5777 1516.61 32.1475C1518.39 30.7084 1519.35 29.8176 1520.66 28.3442C1522.44 26.2883 1523.36 25.0891 1524.32 23.5472L1532.61 23.4787C1531.07 27.6246 1529.53 30.0574 1526.79 32.6958C1523.84 35.5054 1520.42 37.527 1515.65 39.1717C1518.26 41.673 1519.05 42.7009 1520.55 45.4421C1526.34 42.7694 1530.22 40.0283 1533.33 36.4648C1536.45 32.8671 1538.75 28.447 1540.53 22.6906C1541.08 20.9088 1541.18 20.7033 1541.63 20.0522L1538.27 16.7629C1537.62 17.1398 1537.27 17.2426 1536.55 17.2426L1527.51 17.3454C1527.65 17.0713 1527.65 17.0713 1527.78 16.6601C1527.95 16.3174 1528.09 15.9405 1528.23 15.5979C1528.61 14.7413 1528.85 14.2273 1528.95 14.0217L1521.31 12.6854ZM1555.78 12.6169C1555.26 14.4672 1554.78 15.6322 1553.79 17.4482C1551.6 21.4571 1549.54 23.8556 1545.33 27.3163C1548.17 28.9267 1549.1 29.6462 1551.22 31.8734C1554.75 28.6526 1557.08 25.8086 1559 22.3479L1567.63 22.3137C1566.88 24.6094 1566.33 25.7744 1565.2 27.5561C1563.28 26.2541 1562.66 25.8772 1559.37 24.1297L1555.09 29.2693C1557.63 30.6399 1559.07 31.565 1561.02 33.1069C1559.41 34.6488 1558.18 35.5397 1556.05 36.7389C1554.2 37.7669 1552.73 38.4179 1549.85 39.4115C1552.45 42.0499 1553.1 42.9065 1554.65 45.5448C1563.9 41.3646 1569.41 35.8138 1573.15 27.0764C1573.83 25.4317 1574.97 22.3479 1575.38 20.9774C1575.65 20.0865 1575.72 19.9494 1576.2 19.504L1572.7 16.0091C1572.12 16.386 1571.85 16.4888 1571.13 16.4888L1561.74 16.5916C1562.42 14.9811 1562.66 14.5014 1562.97 13.9875L1555.78 12.6169ZM1583.63 25.5688V32.7643H1609.67V25.5688H1583.63Z" fill="#ff4839"/>
<path d="M1725.71 31.7806C1725.98 31.0609 1726.22 30.7524 1726.7 30.3752C1727.38 29.8608 1728.38 29.5518 1729.47 29.5511C1731.91 29.5497 1733.48 31.0906 1733.48 33.4891C1733.49 35.8876 1731.91 37.3619 1729.38 37.3635C1727.94 37.3643 1726.91 36.9538 1726.22 36.0976C1725.88 35.6524 1725.71 35.2413 1725.47 34.2821L1717.24 35.4178C1718.07 38.5353 1718.82 39.9054 1720.54 41.412C1722.73 43.2952 1725.85 44.287 1729.69 44.2847C1737.33 44.28 1741.88 40.1998 1741.88 33.3812C1741.88 29.8177 1740.64 27.1116 1738.14 25.2971C1736.39 23.9961 1733.86 23.2781 1731.18 23.2797C1729.3 23.2809 1727.45 23.796 1726.08 24.722L1726.35 20.8157L1734.23 20.8109C1736.59 20.8094 1738.34 20.8769 1740.33 21.047L1740.33 13.9543C1738.65 14.1609 1737.45 14.1959 1734.16 14.1979L1719.53 14.2068L1718.1 31.0314L1725.71 31.7806ZM1757.91 44.0961C1762.26 44.0935 1765.85 42.3781 1768.18 39.1558C1769.93 36.7563 1770.92 33.0209 1770.92 28.8064C1770.92 26.0652 1770.43 23.3586 1769.54 20.9949C1768.99 19.5219 1768.1 18.1519 1766.9 16.9534C1764.64 14.7276 1761.52 13.5302 1757.92 13.5324C1753.26 13.5353 1749.39 15.5935 1747.17 19.3296C1745.83 21.5576 1744.98 25.2244 1744.98 28.8564C1744.98 31.5976 1745.43 34.2356 1746.35 36.6336C1746.9 38.1066 1747.8 39.5109 1748.96 40.6409C1751.26 42.9352 1754.31 44.0983 1757.91 44.0961ZM1757.94 37.1405C1754.92 37.1423 1753.45 34.4706 1753.44 28.8513C1753.44 23.1977 1754.91 20.4556 1757.93 20.4538C1760.98 20.4519 1762.42 23.1579 1762.42 28.8115C1762.42 34.4994 1761.02 37.1386 1757.94 37.1405ZM1786.36 44.0788C1790.72 44.0762 1794.31 42.3608 1796.64 39.1385C1798.39 36.7389 1799.38 33.0035 1799.38 28.789C1799.37 26.0479 1798.89 23.3413 1798 20.9776C1797.45 19.5046 1796.56 18.1346 1795.36 16.936C1793.1 14.7102 1789.98 13.5129 1786.38 13.5151C1781.72 13.5179 1777.85 15.5761 1775.62 19.3123C1774.29 21.5403 1773.43 25.2071 1773.44 28.8391C1773.44 31.5802 1773.89 34.2183 1774.81 36.6162C1775.36 38.0893 1776.25 39.4936 1777.42 40.6236C1779.72 42.9179 1782.77 44.081 1786.36 44.0788ZM1786.39 37.1232C1783.38 37.125 1781.9 34.4533 1781.9 28.8339C1781.9 23.1803 1783.37 20.4383 1786.38 20.4365C1789.43 20.4346 1790.87 23.1406 1790.88 28.7942C1790.88 34.4821 1789.48 37.1213 1786.39 37.1232ZM1824.64 19.5566L1819.23 20.3822C1817.79 20.5887 1816.56 20.7265 1815.08 20.7616L1816.15 27.6138C1816.94 27.4078 1816.94 27.4078 1820.43 26.7889L1825.81 25.9633L1826.43 29.4921L1819.34 30.5929C1817.62 30.868 1816.6 30.9715 1815.33 31.0065L1816.39 37.7902C1817.94 37.3781 1818.9 37.1719 1820.2 36.9655L1827.6 35.8303L1828.53 41.0722C1828.87 42.9907 1829.01 43.9843 1829.01 45.115L1836.65 43.8769C1836.24 42.7121 1836.24 42.7121 1835.72 39.8343L1834.76 34.7295L1842.12 33.5943C1845.07 33.1813 1845.07 33.1813 1845.82 33.1808L1844.62 26.4315C1843.42 26.7749 1842.15 27.0498 1840.82 27.2562L1833.56 28.3913L1832.9 24.8625L1839.27 23.8649C1842.02 23.4521 1842.02 23.4521 1842.91 23.383L1841.77 16.6337C1840.78 16.9769 1839.82 17.1831 1838.11 17.4582L1831.7 18.4558L1831.39 16.7428C1831.11 15.4409 1830.98 14.1732 1830.91 13.0768L1823.47 14.212C1823.88 15.4453 1823.99 15.8907 1824.37 17.9806L1824.64 19.5566ZM1857.02 23.8884L1854.93 24.2323C1853.8 24.4386 1852.84 24.5077 1851.58 24.5427L1852.64 30.7097C1853.6 30.4007 1854.87 30.0915 1855.76 29.9539L1858.02 29.5414L1860.19 42.0465C1860.36 43.1086 1860.43 43.7253 1860.46 44.9246L1867.28 43.7212C1866.9 42.762 1866.9 42.762 1866.56 40.8434L1864.22 28.4754L1870.66 27.3408C1869.26 29.5688 1868.03 30.8716 1865.94 32.3463C1868.17 33.5441 1869.02 34.1946 1871.01 36.1465C1872.72 34.5693 1873.58 33.6779 1874.47 32.4781C1875.84 30.6613 1877.14 28.2277 1877.93 25.8973C1878.4 24.3893 1878.4 24.3893 1878.82 23.9437L1875.08 20.5195C1874.67 20.8624 1874.29 20.9997 1873.57 21.1372L1863.16 22.8567L1862.74 20.7326C1862.61 19.9104 1862.47 18.9168 1862.43 17.9917L1855.96 18.9893C1856.27 19.8114 1856.44 20.4281 1856.65 21.6615L1857.02 23.8884ZM1888.58 20.2029C1889.78 20.0309 1890.36 19.9962 1893.17 19.9945L1906.12 19.9866C1908.93 19.9849 1909.51 20.0188 1910.71 20.1894L1910.71 13.4394C1909.41 13.68 1908.72 13.7147 1906.02 13.7164L1893.27 13.7241C1890.6 13.7257 1889.88 13.6919 1888.57 13.4529L1888.58 20.2029ZM1885.74 28.8735C1887.08 28.7014 1887.59 28.6668 1890.85 28.6648L1905.54 28.6559C1904.31 31.432 1902.91 33.1118 1900.37 34.8608C1898.01 36.4727 1895.68 37.4678 1891.64 38.5667C1894.18 41.272 1894.9 42.2995 1896.2 45.1427C1901.48 42.9808 1904.11 41.4716 1906.51 39.3457C1909.8 36.4313 1912.06 32.7979 1913.84 27.5201C1914.35 25.9436 1914.35 25.9436 1914.79 25.3266L1911.71 22.0734C1911.09 22.3821 1910.71 22.4851 1909.65 22.4858L1890.94 22.4629C1887.89 22.4648 1887.21 22.4309 1885.74 22.192L1885.74 28.8735ZM1929.59 12.4C1929.45 13.565 1929.11 14.5589 1928.32 16.2041C1926.24 20.5912 1923.43 23.8822 1919.08 27.0372C1921.79 28.6802 1922.54 29.2965 1924.91 31.8649C1926.69 30.4247 1927.65 29.5333 1928.95 28.0591C1930.73 26.0022 1931.65 24.8024 1932.61 23.2599L1940.9 23.1863C1939.36 27.3332 1937.82 29.7669 1935.08 32.4069C1932.14 35.2184 1928.71 37.2421 1923.95 38.8897C1926.56 41.3894 1927.35 42.4168 1928.85 45.157C1934.64 42.4809 1938.51 39.7374 1941.63 36.172C1944.75 32.5724 1947.04 28.1509 1948.82 22.3934C1949.36 20.6113 1949.47 20.4057 1949.91 19.7544L1946.55 16.4671C1945.9 16.8444 1945.56 16.9474 1944.84 16.9478L1935.79 17.0561C1935.93 16.7819 1935.93 16.7819 1936.07 16.3707C1936.24 16.0279 1936.37 15.6509 1936.51 15.3082C1936.89 14.4514 1937.13 13.9373 1937.23 13.7316L1929.59 12.4ZM1964.06 12.3104C1963.55 14.161 1963.07 15.3263 1962.07 17.1429C1959.88 21.1532 1957.83 23.5529 1953.62 27.0162C1956.46 28.6249 1957.39 29.3438 1959.51 31.5697C1963.04 28.3467 1965.37 25.5014 1967.28 22.0395L1975.92 22C1975.17 24.2962 1974.62 25.4615 1973.49 27.2439C1971.57 25.943 1970.95 25.5665 1967.66 23.821L1963.38 28.9633C1965.92 30.3323 1967.36 31.2566 1969.31 32.7973C1967.7 34.3401 1966.47 35.2318 1964.35 36.4323C1962.5 37.4614 1961.02 38.1133 1958.15 39.1087C1960.75 41.7455 1961.4 42.6017 1962.95 45.2391C1972.2 41.0532 1977.71 35.499 1981.44 26.7594C1982.12 25.1143 1983.25 22.0298 1983.66 20.659C1983.94 19.7679 1984 19.6308 1984.48 19.1851L1980.99 15.6923C1980.4 16.0696 1980.13 16.1725 1979.41 16.1729L1970.02 16.2815C1970.71 14.6706 1970.95 14.1908 1971.25 13.6766L1964.06 12.3104ZM1991.92 25.2454L1991.93 32.4409L2017.97 32.425L2017.96 25.2295L1991.92 25.2454Z" fill="#ff4839"/>
<path d="M2061.24 18.4124L2064.51 24.8183L2071.62 25.9439L2066.54 31.0373L2067.66 38.1428L2061.25 34.8848L2054.84 38.1507L2055.96 31.0437L2050.87 25.9566L2057.97 24.8223L2061.24 18.4124Z" fill="#ff4839"/>
<path d="M1653.22 17.962L1656.5 24.3679L1663.6 25.4936L1658.52 30.5869L1659.65 37.6925L1653.23 34.4344L1646.82 37.7003L1647.94 30.5934L1642.85 25.5062L1649.96 24.3719L1653.22 17.962Z" fill="#ff4839"/>
<path d="M2120.33 12.1454L2120.33 17.527L2109.92 17.5333L2109.92 23.2473C2111.22 21.709 2112.9 20.9391 2114.95 20.9379C2117.26 20.9365 2119.01 21.5865 2120.19 22.8879C2121.38 24.1754 2121.98 26.6615 2121.98 30.3461L2121.98 35.1459C2121.98 37.5284 2121.87 39.2808 2121.63 40.403C2121.41 41.5113 2120.93 42.5436 2120.18 43.4998C2119.43 44.4422 2118.39 45.1701 2117.04 45.6834C2115.71 46.1829 2114.09 46.4332 2112.16 46.4344C2110 46.4357 2108.09 46.0629 2106.45 45.3159C2104.8 44.555 2103.63 43.4268 2102.93 41.9312C2102.24 40.4356 2101.89 38.1225 2101.89 34.9919L2101.89 33.1634L2110.28 33.1583L2110.28 35.2569C2110.28 37.4317 2110.36 38.9761 2110.52 39.8903C2110.67 40.8044 2111.19 41.2612 2112.1 41.2607C2112.51 41.2604 2112.84 41.1286 2113.09 40.8653C2113.36 40.6019 2113.49 40.3179 2113.51 40.0131C2113.53 39.7084 2113.56 38.3855 2113.59 36.0445L2113.58 29.3747C2113.58 28.1141 2113.45 27.2554 2113.19 26.7984C2112.92 26.3415 2112.49 26.1132 2111.88 26.1135C2111.49 26.1138 2111.16 26.2317 2110.9 26.4674C2110.64 26.703 2110.47 26.9594 2110.38 27.2365C2110.31 27.4997 2110.28 28.1231 2110.28 29.1066L2101.97 29.1116L2102.31 12.1564L2120.33 12.1454ZM2145.52 23.5166L2145.52 34.7368C2145.52 37.2856 2145.39 39.1418 2145.11 40.3056C2144.83 41.4693 2144.26 42.5571 2143.39 43.5688C2142.52 44.5805 2141.46 45.3084 2140.23 45.7524C2139 46.1964 2137.62 46.4189 2136.1 46.4198C2134.09 46.4211 2132.42 46.1935 2131.09 45.7372C2129.76 45.2671 2128.7 44.5405 2127.91 43.5574C2127.12 42.5744 2126.56 41.5428 2126.22 40.4625C2125.89 39.3684 2125.72 37.637 2125.72 35.2683L2125.71 23.5286C2125.71 20.4396 2125.97 18.1261 2126.5 16.5882C2127.04 15.0503 2128.1 13.8168 2129.68 12.8878C2131.27 11.9587 2133.19 11.4935 2135.45 11.4921C2137.29 11.491 2138.94 11.8155 2140.4 12.4657C2141.85 13.102 2142.94 13.884 2143.66 14.8116C2144.38 15.7393 2144.87 16.7848 2145.12 17.9482C2145.38 19.1117 2145.51 20.9678 2145.52 23.5166ZM2137.12 20.6958C2137.12 18.9089 2137.03 17.7939 2136.85 17.3507C2136.68 16.8937 2136.28 16.6654 2135.64 16.6658C2135.02 16.6661 2134.6 16.9088 2134.4 17.3938C2134.2 17.8648 2134.11 18.9662 2134.11 20.6977L2134.12 37.1124C2134.12 39.0656 2134.21 40.2429 2134.39 40.6445C2134.58 41.0461 2134.99 41.2467 2135.62 41.2464C2136.24 41.246 2136.65 41.0103 2136.84 40.5392C2137.03 40.0681 2137.13 39.0083 2137.13 37.3599L2137.12 20.6958ZM2169.18 23.5021L2169.19 34.7224C2169.19 37.2711 2169.05 39.1274 2168.78 40.2912C2168.5 41.4549 2167.93 42.5426 2167.05 43.5544C2166.18 44.5661 2165.13 45.294 2163.9 45.738C2162.66 46.182 2161.29 46.4045 2159.76 46.4054C2157.75 46.4067 2156.08 46.1791 2154.75 45.7228C2153.42 45.2526 2152.36 44.526 2151.57 43.543C2150.78 42.56 2150.22 41.5284 2149.89 40.4481C2149.56 39.354 2149.39 37.6226 2149.39 35.2539L2149.38 23.5142C2149.38 20.4252 2149.64 18.1117 2150.16 16.5738C2150.7 15.0359 2151.76 13.8024 2153.34 12.8734C2154.93 11.9443 2156.86 11.4791 2159.12 11.4777C2160.96 11.4766 2162.61 11.8011 2164.06 12.4513C2165.52 13.0876 2166.61 13.8696 2167.33 14.7972C2168.05 15.7249 2168.53 16.7704 2168.78 17.9338C2169.05 19.0972 2169.18 20.9534 2169.18 23.5021ZM2160.78 20.6814C2160.78 18.8945 2160.69 17.7795 2160.51 17.3363C2160.35 16.8793 2159.94 16.651 2159.31 16.6514C2158.68 16.6517 2158.27 16.8944 2158.06 17.3793C2157.87 17.8504 2157.77 18.9517 2157.77 20.6833L2157.78 37.098C2157.78 39.0512 2157.87 40.2285 2158.05 40.6301C2158.25 41.0317 2158.66 41.2323 2159.28 41.232C2159.9 41.2316 2160.31 40.9958 2160.51 40.5248C2160.7 40.0537 2160.8 38.9939 2160.8 37.3455L2160.78 20.6814ZM2202.09 26.7651L2193.35 26.7704L2193.34 20.9109C2193.34 19.2071 2193.24 18.1475 2193.05 17.7321C2192.87 17.3027 2192.46 17.0883 2191.82 17.0887C2191.1 17.0891 2190.65 17.3457 2190.45 17.8583C2190.26 18.3709 2190.16 19.4792 2190.16 21.183L2190.17 36.8082C2190.17 38.4427 2190.27 39.5093 2190.47 40.0078C2190.66 40.5064 2191.1 40.7555 2191.78 40.7551C2192.43 40.7547 2192.85 40.5051 2193.04 40.0063C2193.25 39.5075 2193.35 38.3369 2193.35 36.4946L2193.35 32.2766L2202.1 32.2713L2202.1 33.5803C2202.1 37.0572 2201.85 39.523 2201.35 40.9778C2200.87 42.4325 2199.78 43.7076 2198.09 44.8029C2196.42 45.8983 2194.35 46.4467 2191.88 46.4482C2189.32 46.4498 2187.21 45.987 2185.54 45.0599C2183.88 44.1328 2182.78 42.8522 2182.24 41.218C2181.7 39.5699 2181.43 37.0975 2181.42 33.8007L2181.42 23.9726C2181.42 21.5485 2181.5 19.7338 2181.66 18.5286C2181.83 17.3095 2182.32 16.1387 2183.14 15.0161C2183.97 13.8936 2185.11 13.0133 2186.56 12.3752C2188.03 11.7233 2189.71 11.3967 2191.61 11.3956C2194.19 11.394 2196.32 11.8914 2197.99 12.8877C2199.67 13.8841 2200.77 15.1301 2201.3 16.6258C2201.83 18.1076 2202.09 20.4208 2202.09 23.5652L2202.09 26.7651ZM2226.19 12.081L2226.21 45.7208L2217.46 45.7262L2217.45 31.597L2214.83 31.5986L2214.84 45.7278L2206.09 45.7331L2206.07 12.0932L2214.82 12.0879L2214.83 24.1185L2217.45 24.1169L2217.44 12.0863L2226.19 12.081ZM2245.68 12.0691L2250.7 45.7059L2241.75 45.7114L2241.31 39.6652L2238.17 39.6671L2237.66 45.7139L2228.6 45.7194L2233.02 12.0768L2245.68 12.0691ZM2241.06 33.702C2240.61 29.893 2240.16 25.1904 2239.72 19.5944C2238.83 26.0224 2238.28 30.7255 2238.06 33.7038L2241.06 33.702ZM2253.03 12.0646L2259.22 12.0609C2263.35 12.0584 2266.14 12.216 2267.6 12.5337C2269.06 12.8514 2270.26 13.6679 2271.17 14.9833C2272.1 16.2848 2272.57 18.3693 2272.57 21.2367C2272.57 23.8547 2272.24 25.6142 2271.59 26.5149C2270.94 27.4157 2269.66 27.9567 2267.75 28.138C2269.48 28.5663 2270.65 29.1405 2271.24 29.8605C2271.84 30.5804 2272.21 31.2451 2272.35 31.8545C2272.5 32.45 2272.58 34.1053 2272.58 36.8203L2272.58 45.6926L2264.46 45.6976L2264.45 34.5189C2264.45 32.7181 2264.3 31.6031 2264.01 31.1739C2263.74 30.7446 2262.99 30.5304 2261.79 30.5311L2261.8 45.6992L2253.05 45.7045L2253.03 12.0646ZM2261.78 17.8149L2261.79 25.295C2262.77 25.2944 2263.46 25.1624 2263.84 24.899C2264.24 24.6217 2264.44 23.742 2264.44 22.2598L2264.44 20.4105C2264.44 19.3439 2264.25 18.6445 2263.86 18.3123C2263.49 17.9801 2262.79 17.8143 2261.78 17.8149ZM2291.93 12.041L2296.95 45.6778L2288 45.6832L2287.56 39.637L2284.42 39.6389L2283.91 45.6857L2274.85 45.6912L2279.27 12.0487L2291.93 12.041ZM2287.31 33.6739C2286.86 29.8648 2286.41 25.1623 2285.97 19.5663C2285.09 25.9942 2284.53 30.6973 2284.31 33.6757L2287.31 33.6739ZM2319.72 26.6934L2310.97 26.6988L2310.96 20.8393C2310.96 19.1355 2310.87 18.0759 2310.67 17.6604C2310.49 17.2311 2310.08 17.0167 2309.44 17.0171C2308.72 17.0175 2308.27 17.274 2308.07 17.7867C2307.88 18.2993 2307.78 19.4076 2307.78 21.1114L2307.79 36.7365C2307.8 38.3711 2307.89 39.4377 2308.09 39.9362C2308.28 40.4348 2308.72 40.6838 2309.4 40.6834C2310.05 40.683 2310.47 40.4334 2310.66 39.9346C2310.87 39.4358 2310.97 38.2653 2310.97 36.4229L2310.97 32.205L2319.72 32.1996L2319.72 33.5087C2319.72 36.9856 2319.47 39.4514 2318.98 40.9062C2318.49 42.3609 2317.41 43.636 2315.72 44.7313C2314.04 45.8267 2311.97 46.3751 2309.5 46.3766C2306.94 46.3781 2304.83 45.9154 2303.17 44.9883C2301.5 44.0612 2300.4 42.7806 2299.86 41.1464C2299.32 39.4983 2299.05 37.0258 2299.05 33.729L2299.04 23.901C2299.04 21.4768 2299.12 19.6622 2299.29 18.4569C2299.45 17.2378 2299.94 16.067 2300.76 14.9445C2301.59 13.822 2302.73 12.9417 2304.18 12.3036C2305.65 11.6517 2307.34 11.3251 2309.23 11.324C2311.81 11.3224 2313.94 11.8198 2315.61 12.8161C2317.29 13.8124 2318.39 15.0585 2318.92 16.5542C2319.45 18.036 2319.71 20.3492 2319.71 23.4936L2319.72 26.6934ZM2341.31 12.0109L2341.32 18.743L2336.12 18.7462L2336.14 45.6539L2327.39 45.6592L2327.38 18.7515L2322.2 18.7546L2322.2 12.0225L2341.31 12.0109ZM2344.16 12.0091L2358.75 12.0003L2358.75 18.7324L2352.91 18.7359L2352.92 25.1148L2358.38 25.1115L2358.38 31.5112L2352.92 31.5145L2352.92 38.9116L2359.34 38.9076L2359.35 45.6398L2344.18 45.649L2344.16 12.0091ZM2362.71 11.9978L2368.91 11.9941C2373.03 11.9916 2375.83 12.1492 2377.28 12.4669C2378.75 12.7846 2379.94 13.6011 2380.86 14.9165C2381.78 16.2181 2382.25 18.3025 2382.25 21.1699C2382.25 23.788 2381.93 25.5474 2381.28 26.4482C2380.63 27.3489 2379.35 27.89 2377.44 28.0712C2379.17 28.4996 2380.33 29.0737 2380.93 29.7937C2381.52 30.5136 2381.89 31.1783 2382.03 31.7877C2382.18 32.3832 2382.26 34.0385 2382.26 36.7535L2382.27 45.6258L2374.14 45.6308L2374.14 34.4521C2374.13 32.6513 2373.99 31.5363 2373.7 31.1071C2373.42 30.6778 2372.68 30.4636 2371.47 30.4643L2371.48 45.6324L2362.73 45.6377L2362.71 11.9978ZM2371.47 17.7481L2371.47 25.2282C2372.45 25.2276 2373.14 25.0956 2373.53 24.8322C2373.93 24.5549 2374.13 23.6752 2374.13 22.193L2374.13 20.3437C2374.13 19.2771 2373.93 18.5777 2373.54 18.2455C2373.17 17.9133 2372.48 17.7475 2371.47 17.7481ZM2405.04 22.1534L2396.92 22.1583L2396.92 19.6649C2396.92 18.5014 2396.81 17.7603 2396.61 17.4419C2396.4 17.1234 2396.05 16.9643 2395.57 16.9646C2395.04 16.9649 2394.64 17.1799 2394.36 17.6095C2394.1 18.039 2393.97 18.6902 2393.97 19.5629C2393.97 20.6849 2394.12 21.5298 2394.43 22.0975C2394.72 22.6653 2395.54 23.3504 2396.9 24.153C2400.79 26.464 2403.25 28.3602 2404.26 29.8418C2405.27 31.3233 2405.78 33.7125 2405.78 37.0093C2405.78 39.4057 2405.5 41.1721 2404.93 42.3083C2404.38 43.4445 2403.3 44.401 2401.69 45.1776C2400.09 45.9405 2398.22 46.3226 2396.08 46.3239C2393.74 46.3253 2391.74 45.8832 2390.08 44.9977C2388.43 44.1122 2387.35 42.9839 2386.83 41.6128C2386.32 40.2418 2386.06 38.2957 2386.06 35.7746L2386.06 33.5722L2394.18 33.5672L2394.19 37.6605C2394.19 38.9211 2394.3 39.7313 2394.52 40.0914C2394.76 40.4514 2395.17 40.6312 2395.75 40.6308C2396.33 40.6305 2396.76 40.4017 2397.04 39.9444C2397.33 39.4871 2397.47 38.8082 2397.47 37.9079C2397.47 35.927 2397.2 34.632 2396.66 34.0228C2396.1 33.4137 2394.74 32.3964 2392.56 30.9709C2390.39 29.5316 2388.95 28.4867 2388.24 27.8361C2387.53 27.1854 2386.94 26.2854 2386.47 25.136C2386.01 23.9865 2385.78 22.5183 2385.78 20.7314C2385.78 18.1549 2386.11 16.2708 2386.76 15.0792C2387.42 13.8875 2388.49 12.9587 2389.95 12.2929C2391.42 11.6133 2393.19 11.2728 2395.27 11.2716C2397.54 11.2702 2399.48 11.6361 2401.07 12.3693C2402.68 13.1025 2403.74 14.0299 2404.25 15.1516C2404.78 16.2595 2405.04 18.1501 2405.04 20.8236L2405.04 22.1534Z" fill="#ff4839"/>
<path d="M2446.06 18.1781L2449.33 24.584L2456.44 25.7096L2451.36 30.803L2452.48 37.9085L2446.07 34.6505L2439.66 37.9163L2440.77 30.8094L2435.69 25.7223L2442.79 24.588L2446.06 18.1781Z" fill="#ff4839"/>
<path d="M2495.52 31.3119C2495.79 30.5921 2496.03 30.2836 2496.51 29.9064C2497.2 29.392 2498.19 29.083 2499.29 29.0824C2501.72 29.0809 2503.3 30.6218 2503.3 33.0203C2503.3 35.4188 2501.73 36.8932 2499.19 36.8947C2497.75 36.8956 2496.72 36.485 2496.04 35.6288C2495.69 35.1836 2495.52 34.7725 2495.28 33.8133L2487.06 34.949C2487.88 38.0666 2488.64 39.4367 2490.35 40.9433C2492.55 42.8265 2495.66 43.8182 2499.5 43.8159C2507.14 43.8112 2511.7 39.731 2511.69 32.9124C2511.69 29.3489 2510.46 26.6428 2507.95 24.8283C2506.21 23.5274 2503.67 22.8094 2501 22.811C2499.11 22.8121 2497.26 23.3272 2495.89 24.2532L2496.16 20.3469L2504.04 20.3421C2506.41 20.3407 2508.16 20.4081 2510.14 20.5782L2510.14 13.4855C2508.46 13.6921 2507.26 13.7271 2503.97 13.7291L2489.34 13.738L2487.91 30.5627L2495.52 31.3119ZM2527.72 43.6274C2532.07 43.6247 2535.67 41.9093 2538 38.6871C2539.74 36.2875 2540.73 32.5521 2540.73 28.3376C2540.73 25.5965 2540.25 22.8899 2539.36 20.5262C2538.81 19.0532 2537.92 17.6831 2536.72 16.4846C2534.45 14.2588 2531.33 13.0615 2527.74 13.0636C2523.08 13.0665 2519.21 15.1247 2516.98 18.8609C2515.65 21.0888 2514.79 24.7556 2514.79 28.3877C2514.79 31.1288 2515.24 33.7669 2516.17 36.1648C2516.72 37.6378 2517.61 39.0421 2518.78 40.1721C2521.07 42.4664 2524.12 43.6296 2527.72 43.6274ZM2527.75 36.6717C2524.73 36.6736 2523.26 34.0018 2523.26 28.3825C2523.25 22.7289 2524.72 19.9869 2527.74 19.985C2530.79 19.9832 2532.23 22.6892 2532.23 28.3428C2532.24 34.0306 2530.83 36.6698 2527.75 36.6717ZM2574.29 24.411L2579.95 23.5167C2581.11 23.3447 2582.48 23.1725 2583.37 23.1377L2582.51 17.8958L2583.68 17.5525C2583.13 15.5997 2582.68 14.5036 2581.79 12.7909L2577.95 13.7869C2578.57 15.02 2578.88 15.8079 2579.22 17.007L2578.74 17.11L2573.09 17.9701L2572.78 16.2913C2572.51 14.9894 2572.37 13.7218 2572.3 12.6253L2564.86 13.7606C2565.28 14.9939 2565.38 15.5078 2565.76 17.5291L2566.03 19.0708L2560.62 19.9307C2559.18 20.1372 2557.95 20.275 2556.47 20.3102L2557.54 27.1624C2558.36 26.9563 2558.36 26.9563 2561.82 26.3374L2567.2 25.5118L2567.82 29.0407L2560.73 30.1414C2559.01 30.4166 2557.99 30.52 2556.72 30.555L2557.79 37.3387C2559.33 36.9266 2560.29 36.7204 2561.59 36.5141L2568.99 35.3788L2569.92 40.6207C2570.26 42.5393 2570.4 43.5329 2570.4 44.6636L2578.04 43.4254C2577.63 42.2607 2577.63 42.2607 2577.11 39.3828L2576.15 34.278L2583.52 33.1428C2586.46 32.7298 2586.46 32.7298 2587.22 32.7294L2586.01 25.9801C2584.81 26.3234 2583.55 26.5983 2582.21 26.8047L2574.95 27.9399L2574.29 24.411ZM2582.58 12.5848C2583.5 14.366 2584.02 15.702 2584.43 17.3464L2588.2 16.1791C2587.58 14.0894 2587.13 13.0275 2586.24 11.6232L2582.58 12.5848ZM2598.38 23.437L2596.29 23.7809C2595.16 23.9872 2594.2 24.0563 2592.93 24.0913L2594 30.2582C2594.96 29.9493 2596.22 29.6401 2597.12 29.5025L2599.38 29.09L2601.54 41.5951C2601.72 42.6572 2601.78 43.2739 2601.82 44.4731L2608.64 43.2697C2608.26 42.3106 2608.26 42.3106 2607.92 40.392L2605.58 28.024L2612.02 26.8894C2610.62 29.1174 2609.38 30.4202 2607.29 31.8948C2609.52 33.0927 2610.38 33.7432 2612.37 35.6951C2614.08 34.1179 2614.94 33.2265 2615.83 32.0267C2617.2 30.2098 2618.5 27.7763 2619.28 25.4458C2619.76 23.9379 2619.76 23.9379 2620.17 23.4922L2616.44 20.0681C2616.02 20.411 2615.65 20.5483 2614.93 20.6857L2604.51 22.4053L2604.1 20.2812C2603.96 19.4589 2603.82 18.4653 2603.79 17.5402L2597.31 18.5378C2597.62 19.36 2597.8 19.9766 2598 21.21L2598.38 23.437ZM2626.71 19.9933C2630.28 21.8757 2633.26 24.1353 2636.38 27.3542L2641.14 21.0467C2637.92 18.239 2636.55 17.2804 2631.34 14.2683L2626.71 19.9933ZM2629.44 43.2228C2630.22 42.9482 2630.43 42.9138 2631.32 42.7077C2631.76 42.6046 2632.04 42.5359 2632.14 42.5359C2633.82 42.1922 2634.3 42.0549 2635.6 41.7114C2642.42 39.7542 2647.01 37.1131 2650.84 32.999C2653.28 30.3592 2654.99 27.6855 2657.01 23.4013C2653.96 21.2102 2653.1 20.4227 2650.94 17.9227C2649.95 20.6302 2649.06 22.5152 2647.72 24.6062C2645.09 28.8223 2642.17 31.2911 2637.72 33.1098C2634.5 34.4481 2631.14 35.2039 2627.31 35.5489L2629.44 43.2228ZM2676.5 16.6393C2676.64 16.3651 2676.64 16.3651 2676.77 15.9539C2676.94 15.6111 2677.08 15.2341 2677.22 14.8914C2677.59 14.0346 2677.83 13.5205 2677.94 13.3148L2670.29 11.9832C2670.16 13.1482 2669.82 14.1421 2669.03 15.7873C2666.94 20.1744 2664.13 23.4655 2659.78 26.6204C2662.49 28.2635 2663.25 28.8798 2665.61 31.4481C2667.39 30.0079 2668.35 29.1165 2669.65 27.6423C2671.43 25.5854 2672.36 24.3856 2673.32 22.8431L2681.61 22.7695C2680.07 26.9164 2678.53 29.3501 2675.79 31.9902C2672.84 34.8016 2669.42 36.8253 2664.66 38.4729C2667.26 40.9726 2668.05 42 2669.56 44.7403C2675.35 42.0641 2679.22 39.3206 2682.33 35.7552C2685.38 32.2242 2688.02 27.1857 2689.52 22.0109C2690 20.3659 2690 20.2974 2690.45 19.7832L2688.22 17.6601L2689.21 17.3511C2688.66 15.4669 2688.15 14.2337 2687.36 12.8979L2683.9 13.7566C2684.48 14.9213 2684.69 15.4008 2685.03 16.5313L2676.5 16.6393ZM2688.18 12.6918C2688.97 13.8906 2689.45 15.021 2690.17 17.4534L2693.46 16.3549C2693.08 14.6762 2692.46 13.2375 2691.54 11.7989L2688.18 12.6918Z" fill="#ff4839"/>
<path d="M2732.87 18.0035L2736.15 24.4094L2743.25 25.535L2738.17 30.6283L2739.3 37.7339L2732.88 34.4758L2726.47 37.7417L2727.59 30.6348L2722.5 25.5476L2729.61 24.4133L2732.87 18.0035Z" fill="#ff4839"/>
<path d="M2791.6 11.7367L2791.61 17.1182L2781.2 17.1246L2781.2 22.8386C2782.5 21.3002 2784.18 20.5304 2786.23 20.5291C2788.54 20.5277 2790.28 21.1777 2791.46 22.4791C2792.66 23.7666 2793.25 26.2527 2793.25 29.9374L2793.26 34.7371C2793.26 37.1197 2793.14 38.8721 2792.91 39.9942C2792.69 41.1025 2792.2 42.1348 2791.45 43.0911C2790.71 44.0335 2789.66 44.7613 2788.32 45.2747C2786.99 45.7742 2785.36 46.0245 2783.44 46.0257C2781.28 46.027 2779.37 45.6541 2777.72 44.9071C2776.07 44.1463 2774.9 43.018 2774.21 41.5224C2773.51 40.0268 2773.17 37.7137 2773.17 34.5831L2773.16 32.7547L2781.56 32.7496L2781.56 34.8482C2781.56 37.0229 2781.64 38.5674 2781.79 39.4815C2781.94 40.3957 2782.47 40.8525 2783.37 40.8519C2783.79 40.8517 2784.12 40.7199 2784.37 40.4566C2784.63 40.1932 2784.77 39.9091 2784.78 39.6044C2784.81 39.2996 2784.84 37.9767 2784.86 35.6357L2784.86 28.9659C2784.86 27.7054 2784.73 26.8466 2784.46 26.3897C2784.2 25.9327 2783.76 25.7044 2783.15 25.7048C2782.77 25.705 2782.44 25.823 2782.18 26.0586C2781.91 26.2943 2781.74 26.5506 2781.66 26.8277C2781.59 27.0909 2781.56 27.7143 2781.56 28.6978L2773.24 28.7029L2773.59 11.7477L2791.6 11.7367ZM2816.79 23.1078L2816.8 34.328C2816.8 36.8768 2816.66 38.7331 2816.39 39.8968C2816.11 41.0606 2815.54 42.1483 2814.66 43.16C2813.79 44.1718 2812.74 44.8997 2811.51 45.3437C2810.27 45.7877 2808.9 46.0102 2807.37 46.0111C2805.36 46.0123 2803.69 45.7848 2802.36 45.3285C2801.03 44.8583 2799.97 44.1317 2799.18 43.1487C2798.39 42.1657 2797.83 41.134 2797.5 40.0538C2797.17 38.9597 2797 37.2282 2797 34.8595L2796.99 23.1199C2796.99 20.0308 2797.25 17.7174 2797.78 16.1795C2798.31 14.6416 2799.37 13.4081 2800.95 12.479C2802.54 11.55 2804.47 11.0847 2806.73 11.0834C2808.57 11.0822 2810.22 11.4068 2811.67 12.0569C2813.13 12.6932 2814.22 13.4752 2814.94 14.4029C2815.66 15.3305 2816.14 16.3761 2816.39 17.5395C2816.66 18.7029 2816.79 20.559 2816.79 23.1078ZM2808.4 20.2871C2808.39 18.5002 2808.3 17.3851 2808.12 16.942C2807.96 16.4849 2807.55 16.2566 2806.92 16.257C2806.29 16.2574 2805.88 16.5001 2805.67 16.985C2805.48 17.4561 2805.38 18.5574 2805.38 20.2889L2805.39 36.7037C2805.39 38.6568 2805.48 39.8342 2805.66 40.2358C2805.86 40.6374 2806.27 40.838 2806.89 40.8376C2807.51 40.8372 2807.92 40.6015 2808.12 40.1304C2808.31 39.6593 2808.41 38.5996 2808.41 36.9512L2808.4 20.2871ZM2849.35 24.0853L2840.6 24.0907L2840.6 21.0363C2840.6 19.1108 2840.52 17.9057 2840.35 17.421C2840.18 16.9363 2839.79 16.6941 2839.16 16.6945C2838.62 16.6948 2838.26 16.9028 2838.06 17.3185C2837.87 17.7342 2837.77 18.8009 2837.77 20.5185L2837.78 36.6632C2837.78 38.1731 2837.88 39.1703 2838.08 39.6551C2838.27 40.1259 2838.66 40.3612 2839.24 40.3608C2839.88 40.3604 2840.31 40.09 2840.53 39.5497C2840.76 39.0093 2840.88 37.9565 2840.88 36.3912L2840.88 32.4018L2839.11 32.4028L2839.11 27.2914L2849.35 27.2852L2849.36 45.3414L2843.86 45.3448L2843.04 42.935C2842.45 43.9743 2841.7 44.7574 2840.78 45.2843C2839.88 45.7974 2838.81 46.0543 2837.58 46.055C2836.11 46.0559 2834.74 45.7035 2833.45 44.9979C2832.17 44.2783 2831.2 43.3924 2830.54 42.34C2829.87 41.2877 2829.45 40.1867 2829.29 39.0371C2829.12 37.8736 2829.04 36.1352 2829.03 33.8219L2829.03 23.8276C2829.03 20.6139 2829.2 18.2797 2829.54 16.825C2829.89 15.3703 2830.88 14.0399 2832.51 12.8338C2834.16 11.6138 2836.29 11.003 2838.89 11.0014C2841.45 10.9999 2843.58 11.525 2845.27 12.5767C2846.96 13.6284 2848.06 14.8814 2848.58 16.3355C2849.09 17.7758 2849.35 19.8743 2849.35 22.6309L2849.35 24.0853ZM2868.71 11.6897L2873.73 45.3266L2864.78 45.332L2864.34 39.2858L2861.2 39.2877L2860.69 45.3345L2851.63 45.34L2856.05 11.6975L2868.71 11.6897ZM2864.09 33.3226C2863.64 29.5136 2863.19 24.8111 2862.75 19.2151C2861.87 25.643 2861.31 30.3461 2861.09 33.3245L2864.09 33.3226ZM2895.59 11.6734L2895.61 45.3132L2887.95 45.3179L2883.39 30.0279L2883.4 45.3207L2876.08 45.3251L2876.06 11.6853L2883.38 11.6808L2888.29 26.8251L2888.28 11.6778L2895.59 11.6734ZM2920.06 24.0423L2911.31 24.0476L2911.31 20.9932C2911.3 19.0678 2911.22 17.8627 2911.05 17.378C2910.89 16.8932 2910.49 16.6511 2909.87 16.6514C2909.33 16.6518 2908.96 16.8598 2908.77 17.2755C2908.57 17.6911 2908.48 18.7578 2908.48 20.4755L2908.49 36.6201C2908.49 38.13 2908.59 39.1273 2908.78 39.612C2908.98 40.0829 2909.36 40.3181 2909.95 40.3177C2910.58 40.3174 2911.01 40.047 2911.23 39.5066C2911.47 38.9662 2911.59 37.9134 2911.59 36.3481L2911.58 32.3587L2909.82 32.3598L2909.81 27.2484L2920.06 27.2421L2920.07 45.2983L2914.56 45.3017L2913.75 42.8919C2913.16 43.9312 2912.4 44.7143 2911.49 45.2412C2910.59 45.7543 2909.52 46.0112 2908.29 46.012C2906.82 46.0129 2905.44 45.6605 2904.15 44.9548C2902.88 44.2353 2901.91 43.3493 2901.24 42.297C2900.58 41.2446 2900.16 40.1436 2899.99 38.994C2899.83 37.8305 2899.74 36.0921 2899.74 33.7788L2899.73 23.7845C2899.73 20.5708 2899.9 18.2367 2900.25 16.782C2900.59 15.3273 2901.58 13.9969 2903.22 12.7908C2904.87 11.5708 2906.99 10.96 2909.6 10.9584C2912.16 10.9568 2914.29 11.4819 2915.98 12.5336C2917.67 13.5854 2918.77 14.8383 2919.28 16.2925C2919.8 17.7328 2920.05 19.8312 2920.05 22.5878L2920.06 24.0423ZM2942.85 21.8259L2934.72 21.8309L2934.72 19.3375C2934.72 18.1739 2934.62 17.4329 2934.41 17.1144C2934.2 16.7959 2933.85 16.6368 2933.37 16.6371C2932.84 16.6375 2932.44 16.8524 2932.16 17.282C2931.9 17.7116 2931.77 18.3627 2931.77 19.2354C2931.77 20.3574 2931.92 21.2023 2932.23 21.77C2932.52 22.3378 2933.35 23.023 2934.7 23.8256C2938.6 26.1365 2941.05 28.0328 2942.06 29.5143C2943.07 30.9959 2943.58 33.3851 2943.58 36.6819C2943.58 39.0783 2943.3 40.8446 2942.73 41.9808C2942.18 43.117 2941.1 44.0735 2939.49 44.8502C2937.89 45.613 2936.02 45.9951 2933.89 45.9964C2931.54 45.9978 2929.54 45.5558 2927.88 44.6702C2926.23 43.7847 2925.15 42.6564 2924.64 41.2854C2924.12 39.9143 2923.87 37.9683 2923.86 35.4472L2923.86 33.2447L2931.99 33.2397L2931.99 37.333C2931.99 38.5936 2932.1 39.4039 2932.32 39.7639C2932.56 40.1239 2932.97 40.3037 2933.55 40.3034C2934.13 40.303 2934.56 40.0742 2934.84 39.6169C2935.13 39.1596 2935.27 38.4808 2935.27 37.5804C2935.27 35.5995 2935 34.3045 2934.46 33.6954C2933.91 33.0862 2932.54 32.0689 2930.36 30.6435C2928.19 29.2042 2926.75 28.1592 2926.04 27.5086C2925.33 26.858 2924.74 25.9579 2924.27 24.8085C2923.82 23.6591 2923.59 22.1909 2923.58 20.4039C2923.58 17.8275 2923.91 15.9434 2924.56 14.7517C2925.22 13.56 2926.29 12.6313 2927.76 11.9655C2929.22 11.2858 2931 10.9454 2933.07 10.9441C2935.35 10.9427 2937.28 11.3086 2938.87 12.0418C2940.48 12.775 2941.54 13.7024 2942.05 14.8241C2942.58 15.932 2942.84 17.8226 2942.85 20.4961L2942.85 21.8259Z" fill="#ff4839"/>
<path d="M2983.69 17.8507L2986.97 24.2566L2994.07 25.3822L2988.99 30.4756L2990.12 37.5811L2983.7 34.3231L2977.29 37.5889L2978.41 30.482L2973.32 25.3949L2980.43 24.2606L2983.69 17.8507Z" fill="#ff4839"/>
<path d="M3032.73 30.8974C3033.01 30.1779 3033.25 29.8695 3033.73 29.4926C3034.41 28.9786 3035.41 28.6702 3036.5 28.6702C3038.93 28.6702 3040.51 30.2121 3040.51 32.6106C3040.51 35.0091 3038.93 36.4825 3036.4 36.4825C3034.96 36.4825 3033.93 36.0713 3033.25 35.2147C3032.9 34.7693 3032.73 34.3581 3032.49 33.3987L3024.27 34.5294C3025.09 37.6475 3025.85 39.018 3027.56 40.5257C3029.75 42.4102 3032.87 43.4039 3036.71 43.4039C3044.35 43.4039 3048.91 39.3264 3048.91 32.5078C3048.91 28.9444 3047.67 26.2375 3045.17 24.4215C3043.42 23.1194 3040.89 22.3999 3038.22 22.3999C3036.33 22.3999 3034.48 22.9138 3033.11 23.839L3033.38 19.9329H3041.26C3043.63 19.9329 3045.38 20.0014 3047.36 20.1727V13.08C3045.68 13.2856 3044.49 13.3198 3041.2 13.3198H3026.57L3025.13 30.1436L3032.73 30.8974ZM3064.93 43.2325C3069.28 43.2325 3072.88 41.5193 3075.21 38.2985C3076.95 35.9 3077.95 32.1652 3077.95 27.9507C3077.95 25.2095 3077.47 22.5027 3076.58 20.1384C3076.03 18.6651 3075.14 17.2945 3073.94 16.0953C3071.68 13.8681 3068.56 12.6688 3064.96 12.6688C3060.3 12.6688 3056.43 14.7247 3054.2 18.4595C3052.86 20.6867 3052.01 24.3529 3052.01 27.985C3052.01 30.7261 3052.45 33.3644 3053.38 35.7629C3053.93 37.2363 3054.82 38.6411 3055.98 39.7719C3058.28 42.0676 3061.33 43.2325 3064.93 43.2325ZM3064.96 36.2769C3061.94 36.2769 3060.47 33.6043 3060.47 27.985C3060.47 22.3313 3061.94 19.5902 3064.96 19.5902C3068.01 19.5902 3069.45 22.2971 3069.45 27.9507C3069.45 33.6386 3068.04 36.2769 3064.96 36.2769ZM3093.38 43.2325C3097.74 43.2325 3101.33 41.5193 3103.66 38.2985C3105.41 35.9 3106.4 32.1652 3106.4 27.9507C3106.4 25.2095 3105.92 22.5027 3105.03 20.1384C3104.49 18.6651 3103.59 17.2945 3102.4 16.0953C3100.13 13.8681 3097.02 12.6688 3093.42 12.6688C3088.76 12.6688 3084.89 14.7247 3082.66 18.4595C3081.32 20.6867 3080.47 24.3529 3080.47 27.985C3080.47 30.7261 3080.91 33.3644 3081.84 35.7629C3082.39 37.2363 3083.28 38.6411 3084.44 39.7719C3086.74 42.0676 3089.79 43.2325 3093.38 43.2325ZM3093.42 36.2769C3090.4 36.2769 3088.93 33.6043 3088.93 27.985C3088.93 22.3313 3090.4 19.5902 3093.42 19.5902C3096.47 19.5902 3097.91 22.2971 3097.91 27.9507C3097.91 33.6386 3096.5 36.2769 3093.42 36.2769ZM3131.68 18.7336L3126.26 19.5559C3124.82 19.7615 3123.59 19.8986 3122.12 19.9329L3123.18 26.7857C3123.97 26.5801 3123.97 26.5801 3127.46 25.9634L3132.84 25.141L3133.46 28.6702L3126.37 29.7667C3124.65 30.0408 3123.62 30.1436 3122.36 30.1779L3123.42 36.9622C3124.96 36.551 3125.92 36.3454 3127.22 36.1398L3134.62 35.0091L3135.55 40.2516C3135.89 42.1704 3136.03 43.164 3136.03 44.2947L3143.67 43.0612C3143.26 41.8962 3143.26 41.8962 3142.74 39.018L3141.78 33.9127L3149.15 32.7819C3152.1 32.3708 3152.1 32.3708 3152.85 32.3708L3151.65 25.6207C3150.45 25.9634 3149.19 26.2375 3147.85 26.4431L3140.58 27.5738L3139.93 24.0446L3146.31 23.0509C3149.05 22.6397 3149.05 22.6397 3149.94 22.5712L3148.81 15.8211C3147.81 16.1638 3146.86 16.3694 3145.14 16.6435L3138.73 17.6371L3138.43 15.9239C3138.15 14.6219 3138.01 13.3541 3137.95 12.2577L3130.51 13.3884C3130.92 14.6219 3131.03 15.0673 3131.4 17.1574L3131.68 18.7336ZM3164.06 23.0852L3161.97 23.4278C3160.83 23.6334 3159.88 23.7019 3158.61 23.7362L3159.67 29.9037C3160.63 29.5954 3161.9 29.287 3162.79 29.1499L3165.05 28.7388L3167.21 41.2452C3167.38 42.3074 3167.45 42.9242 3167.48 44.1234L3174.3 42.9242C3173.92 41.9648 3173.92 41.9648 3173.58 40.046L3171.25 27.6766L3177.69 26.5459C3176.29 28.773 3175.05 30.0751 3172.96 31.5484C3175.19 32.7477 3176.05 33.3987 3178.04 35.3518C3179.75 33.7756 3180.61 32.8847 3181.5 31.6855C3182.87 29.8695 3184.17 27.4367 3184.96 25.1068C3185.44 23.5991 3185.44 23.5991 3185.85 23.1537L3182.11 19.7273C3181.7 20.0699 3181.32 20.207 3180.61 20.344L3170.19 22.0572L3169.78 19.9329C3169.64 19.1105 3169.5 18.1168 3169.47 17.1917L3162.99 18.1854C3163.3 19.0077 3163.47 19.6245 3163.68 20.858L3164.06 23.0852ZM3195.61 19.4189C3196.81 19.2476 3197.39 19.2133 3200.2 19.2133H3213.16C3215.97 19.2133 3216.55 19.2476 3217.75 19.4189V12.6688C3216.45 12.9087 3215.76 12.9429 3213.05 12.9429H3200.31C3197.63 12.9429 3196.92 12.9087 3195.61 12.6688V19.4189ZM3192.77 28.0877C3194.11 27.9164 3194.62 27.8822 3197.87 27.8822H3212.57C3211.34 30.6576 3209.94 32.3365 3207.4 34.084C3205.04 35.6944 3202.71 36.6881 3198.66 37.7845C3201.2 40.4914 3201.92 41.5193 3203.22 44.3633C3208.5 42.2046 3211.13 40.697 3213.53 38.5726C3216.82 35.6601 3219.08 32.0281 3220.87 26.7514C3221.38 25.1753 3221.38 25.1753 3221.83 24.5585L3218.74 21.3034C3218.12 21.6118 3217.75 21.7146 3216.69 21.7146L3197.98 21.6803C3194.93 21.6803 3194.24 21.6461 3192.77 21.4062V28.0877ZM3236.63 11.6409C3236.49 12.8059 3236.15 13.7995 3235.36 15.4442C3233.27 19.8301 3230.46 23.1194 3226.11 26.2717C3228.82 27.9164 3229.57 28.5332 3231.93 31.103C3233.72 29.6639 3234.67 28.773 3235.98 27.2997C3237.76 25.2438 3238.68 24.0446 3239.64 22.5027L3247.93 22.4341C3246.39 26.5801 3244.85 29.0129 3242.11 31.6512C3239.16 34.4609 3235.74 36.4825 3230.97 38.1272C3233.58 40.6285 3234.37 41.6564 3235.87 44.3975C3241.66 41.7249 3245.54 38.9838 3248.65 35.4203C3251.77 31.8225 3254.07 27.4025 3255.85 21.6461C3256.4 19.8643 3256.5 19.6587 3256.95 19.0077L3253.59 15.7183C3252.94 16.0953 3252.59 16.198 3251.88 16.198L3242.83 16.3008C3242.97 16.0267 3242.97 16.0267 3243.1 15.6156C3243.27 15.2729 3243.41 14.896 3243.55 14.5534C3243.93 13.6968 3244.17 13.1828 3244.27 12.9772L3236.63 11.6409ZM3271.1 11.5724C3270.58 13.4226 3270.1 14.5876 3269.11 16.4036C3266.92 20.4126 3264.86 22.811 3260.65 26.2717C3263.49 27.8822 3264.42 28.6017 3266.54 30.8289C3270.07 27.608 3272.4 24.7641 3274.32 21.3034L3282.95 21.2692C3282.2 23.5649 3281.65 24.7298 3280.52 26.5116C3278.6 25.2095 3277.98 24.8326 3274.7 23.0852L3270.41 28.2248C3272.95 29.5954 3274.39 30.5205 3276.34 32.0624C3274.73 33.6043 3273.5 34.4952 3271.37 35.6944C3269.52 36.7223 3268.05 37.3734 3265.17 38.367C3267.77 41.0054 3268.42 41.862 3269.97 44.5003C3279.22 40.3201 3284.73 34.7693 3288.47 26.0319C3289.15 24.3872 3290.29 21.3034 3290.7 19.9329C3290.97 19.042 3291.04 18.9049 3291.52 18.4595L3288.02 14.9645C3287.44 15.3414 3287.17 15.4442 3286.45 15.4442L3277.06 15.547C3277.74 13.9366 3277.98 13.4569 3278.29 12.9429L3271.1 11.5724ZM3298.95 24.5243V31.7198H3325V24.5243H3298.95Z" fill="#ff4839"/>
</svg>
