<svg width="3235" height="81" viewBox="0 0 3235 81" fill="none" xmlns="http://www.w3.org/2000/svg">
<g clip-path="url(#clip0_23_298)">
<path d="M1703.67 0.300659L0.674805 0.300659L0.674805 80.5034L1703.67 80.5034V0.300659Z" fill="#080808"/>
<path d="M86.677 80.5034H50.4883L93.489 0.300598L129.678 0.300598L86.677 80.5034Z" fill="#272727"/>
<path d="M137.767 80.5034H101.578L144.579 0.300598L180.768 0.300598L137.767 80.5034Z" fill="#272727"/>
<path d="M188.857 80.5033H152.668L195.669 0.300537L231.857 0.300537L188.857 80.5033Z" fill="#272727"/>
<path d="M239.947 80.5036H203.758L246.759 0.300781L282.947 0.300781L239.947 80.5036Z" fill="#272727"/>
<path d="M291.036 80.5035H254.848L297.848 0.30072L334.037 0.30072L291.036 80.5035Z" fill="#272727"/>
<path d="M648.666 80.5035H612.478L655.478 0.30072L691.667 0.30072L648.666 80.5035Z" fill="#272727"/>
<path d="M699.756 80.5035H663.567L706.568 0.30072L742.757 0.30072L699.756 80.5035Z" fill="#272727"/>
<path d="M750.846 80.5035H714.657L757.658 0.30072L793.847 0.30072L750.846 80.5035Z" fill="#272727"/>
<path d="M801.937 80.5034H765.748L808.749 0.300659L844.938 0.300659L801.937 80.5034Z" fill="#272727"/>
<path d="M853.026 80.5034H816.837L859.838 0.300659L896.026 0.300659L853.026 80.5034Z" fill="#272727"/>
<path d="M904.116 80.5033H867.927L910.928 0.300537L947.116 0.300537L904.116 80.5033Z" fill="#272727"/>
<path d="M342.126 80.5035H305.938L348.938 0.30072L385.127 0.30072L342.126 80.5035Z" fill="#272727"/>
<path d="M393.216 80.5034H357.027L400.028 0.300659L436.217 0.300659L393.216 80.5034Z" fill="#272727"/>
<path d="M444.306 80.5034H408.117L451.118 0.300659L487.307 0.300659L444.306 80.5034Z" fill="#272727"/>
<path d="M495.396 80.5034H459.207L502.208 0.300598L538.397 0.300598L495.396 80.5034Z" fill="#272727"/>
<path d="M546.487 80.5033H510.298L553.299 0.300537L589.487 0.300537L546.487 80.5033Z" fill="#272727"/>
<path d="M597.576 80.5036H561.388L604.388 0.300781L640.577 0.300781L597.576 80.5036Z" fill="#272727"/>
<path d="M1261.75 80.5034H1225.56L1268.56 0.300598L1304.75 0.300598L1261.75 80.5034Z" fill="#272727"/>
<path d="M1312.84 80.5034H1276.65L1319.65 0.300598L1355.84 0.300598L1312.84 80.5034Z" fill="#272727"/>
<path d="M1363.93 80.5034H1327.74L1370.74 0.300598L1406.93 0.300598L1363.93 80.5034Z" fill="#272727"/>
<path d="M1415.02 80.5035H1378.83L1421.83 0.30072L1458.02 0.30072L1415.02 80.5035Z" fill="#272727"/>
<path d="M1466.11 80.5035H1429.92L1472.92 0.30072L1509.11 0.30072L1466.11 80.5035Z" fill="#272727"/>
<path d="M1517.2 80.5035H1481.01L1524.01 0.30072L1560.2 0.30072L1517.2 80.5035Z" fill="#272727"/>
<path d="M955.206 80.5033H919.018L962.018 0.300537L998.207 0.300537L955.206 80.5033Z" fill="#272727"/>
<path d="M1006.3 80.5035H970.107L1013.11 0.30072L1049.3 0.30072L1006.3 80.5035Z" fill="#272727"/>
<path d="M1057.39 80.5035H1021.2L1064.2 0.30072L1100.39 0.30072L1057.39 80.5035Z" fill="#272727"/>
<path d="M1108.48 80.5035H1072.29L1115.29 0.30072L1151.48 0.30072L1108.48 80.5035Z" fill="#272727"/>
<path d="M1159.57 80.5034H1123.38L1166.38 0.300659L1202.57 0.300659L1159.57 80.5034Z" fill="#272727"/>
<path d="M1210.66 80.5034H1174.47L1217.47 0.300659L1253.66 0.300659L1210.66 80.5034Z" fill="#272727"/>
<path d="M1568.29 80.5034H1532.1L1575.1 0.300659L1611.29 0.300659L1568.29 80.5034Z" fill="#272727"/>
<path d="M1619.38 80.5034H1583.19L1626.19 0.300659L1662.38 0.300659L1619.38 80.5034Z" fill="#272727"/>
<path d="M1703.67 13.235L0.674805 13.235L0.674805 65.8662L1703.67 65.8662V13.235Z" fill="#080808"/>
<path d="M11.6934 20.0131H21.988C28.4935 20.0131 31.6951 23.6235 31.6951 30.2482V51.1951C31.6951 57.8197 28.502 61.4301 21.988 61.4301H11.6934L11.6934 20.0131ZM18.1988 25.931V55.5121H21.8688C23.9379 55.5121 25.1811 54.4478 25.1811 51.4846V29.9586C25.1811 27.0039 23.9379 25.931 21.8688 25.931H18.1988V25.931Z" fill="#272727"/>
<path d="M59.7942 61.4386H53.2292L52.1052 53.9198H44.1181L42.9941 61.4386H37.0166L43.6413 20.0216H53.1696L59.7942 61.4386ZM44.9441 48.2999H51.2196L48.0861 27.353L44.9441 48.2999Z" fill="#272727"/>
<path d="M71.5712 31.4316V61.4385H65.7129V20.013H73.8788L80.5631 44.8087V20.013H86.3618V61.4385H79.6775L71.5712 31.4316Z" fill="#272727"/>
<path d="M103.757 38.3544H112.868V51.493C112.868 58.1177 109.556 61.9069 103.161 61.9069C96.775 61.9069 93.4541 58.1177 93.4541 51.493V29.9586C93.4541 23.3339 96.7664 19.5447 103.161 19.5447C109.547 19.5447 112.868 23.3339 112.868 29.9586V33.9862H106.712V29.5499C106.712 26.5952 105.409 25.4712 103.34 25.4712C101.271 25.4712 99.9681 26.5952 99.9681 29.5499V51.9188C99.9681 54.8735 101.271 55.9464 103.34 55.9464C105.409 55.9464 106.712 54.882 106.712 51.9188V44.2893H103.757V38.3544V38.3544Z" fill="#272727"/>
<path d="M126.535 37.4689H135.468V43.3868H126.535V55.5207H137.775V61.4386H120.021V20.0131H137.775V25.931H126.535V37.4689Z" fill="#272727"/>
<path d="M158.364 61.4385C158.006 60.3741 157.777 59.7184 157.777 56.3465V49.841C157.777 45.9923 156.474 44.5788 153.519 44.5788H151.271V61.4385H144.766V20.013H154.592C161.336 20.013 164.239 23.1465 164.239 29.5413V32.794C164.239 37.0515 162.877 39.8359 159.982 41.1983C163.235 42.5607 164.299 45.6942 164.299 50.0113V56.3976C164.299 58.4071 164.359 59.8887 165.006 61.43H158.364V61.4385ZM151.271 25.9309V38.6523H153.817C156.244 38.6523 157.725 37.588 157.725 34.2756V30.1969C157.725 27.2422 156.721 25.9394 154.413 25.9394H151.271V25.9309Z" fill="#272727"/>
<path d="M385.4 61.4386H378.835L377.711 53.9199H369.724L368.6 61.4386H362.622L369.247 20.0217H378.775L385.4 61.4386ZM370.55 48.3H376.825L373.692 27.3531L370.55 48.3Z" fill="#272727"/>
<path d="M389.486 20.0129H409.607V25.9309H402.804V61.4384H396.298V25.9309H389.495V20.0129H389.486Z" fill="#272727"/>
<path d="M413.508 20.0129H433.629V25.9309H426.825V61.4384H420.32V25.9309H413.516V20.0129H413.508Z" fill="#272727"/>
<path d="M445.933 37.4689H454.865V43.3868H445.933V55.5207H457.173V61.4386H439.419V20.0131H457.173V25.931H445.933V37.4689Z" fill="#272727"/>
<path d="M469.954 31.4316V61.4384H464.096V20.0129H472.262L478.946 44.8086V20.0129H484.745V61.4384H478.06L469.954 31.4316Z" fill="#272727"/>
<path d="M490.483 20.0129H510.604V25.9309H503.801V61.4384H497.295V25.9309H490.492V20.0129H490.483Z" fill="#272727"/>
<path d="M516.395 20.013H522.9V61.4385H516.395V20.013Z" fill="#272727"/>
<path d="M530.062 29.9586C530.062 23.334 533.553 19.5448 539.939 19.5448C546.325 19.5448 549.816 23.334 549.816 29.9586V51.4931C549.816 58.1177 546.325 61.9069 539.939 61.9069C533.553 61.9069 530.062 58.1177 530.062 51.4931V29.9586ZM536.575 51.9103C536.575 54.865 537.878 55.989 539.947 55.989C542.017 55.989 543.319 54.865 543.319 51.9103V29.5414C543.319 26.5867 542.017 25.4627 539.947 25.4627C537.878 25.4627 536.575 26.5867 536.575 29.5414V51.9103Z" fill="#272727"/>
<path d="M562.784 31.4317V61.4385H556.926V20.0131H565.092L571.776 44.8087V20.0131H577.575V61.4385H570.89L562.784 31.4317Z" fill="#272727"/>
<path d="M773.785 20.0132H784.08C790.585 20.0132 793.787 23.6235 793.787 30.2482V51.1951C793.787 57.8198 790.594 61.4301 784.08 61.4301H773.785V20.0132ZM780.291 25.9311V55.5122H783.961C786.03 55.5122 787.273 54.4478 787.273 51.4846V29.9587C787.273 27.004 786.03 25.9311 783.961 25.9311H780.291V25.9311Z" fill="#272727"/>
<path d="M821.886 61.4386H815.321L814.197 53.9198H806.21L805.086 61.4386H799.108L805.733 20.0216H815.261L821.886 61.4386ZM807.036 48.2999H813.311L810.178 27.353L807.036 48.2999Z" fill="#272727"/>
<path d="M833.663 31.4317V61.4385H827.805V20.0131H835.971L842.655 44.8087V20.0131H848.454V61.4385H841.769L833.663 31.4317Z" fill="#272727"/>
<path d="M865.849 38.3543H874.96V51.493C874.96 58.1176 871.648 61.9068 865.253 61.9068C858.867 61.9068 855.546 58.1176 855.546 51.493V29.9585C855.546 23.3339 858.858 19.5447 865.253 19.5447C871.639 19.5447 874.96 23.3339 874.96 29.9585V33.9861H868.804V29.5498C868.804 26.5951 867.501 25.4711 865.432 25.4711C863.363 25.4711 862.06 26.5951 862.06 29.5498V51.9187C862.06 54.8734 863.363 55.9463 865.432 55.9463C867.501 55.9463 868.804 54.8819 868.804 51.9187V44.2893H865.849V38.3543Z" fill="#272727"/>
<path d="M888.627 37.4689H897.56V43.3868H888.627V55.5207H899.867V61.4386H882.113V20.0131H899.867V25.931H888.627V37.4689Z" fill="#272727"/>
<path d="M920.464 61.4385C920.107 60.3742 919.868 59.7185 919.868 56.3466V49.8411C919.868 45.9923 918.566 44.5788 915.611 44.5788H913.363V61.4385H906.857V20.0131H916.684C923.428 20.0131 926.331 23.1466 926.331 29.5413V32.7941C926.331 37.0516 924.969 39.836 922.074 41.1984C925.326 42.5608 926.391 45.6943 926.391 50.0114V56.3976C926.391 58.4072 926.45 59.8888 927.098 61.43H920.464V61.4385ZM913.363 25.931V38.6524H915.909C918.336 38.6524 919.817 37.588 919.817 34.2757V30.197C919.817 27.2423 918.813 25.9395 916.505 25.9395H913.363V25.931Z" fill="#272727"/>
<path d="M1537.58 20.0132H1547.88C1554.38 20.0132 1557.58 23.6235 1557.58 30.2482V51.1951C1557.58 57.8198 1554.39 61.4301 1547.88 61.4301H1537.58V20.0132ZM1544.09 25.9311V55.5122H1547.76C1549.83 55.5122 1551.07 54.4478 1551.07 51.4846V29.9587C1551.07 27.004 1549.83 25.9311 1547.76 25.9311H1544.09V25.9311Z" fill="#272727"/>
<path d="M1585.68 61.4386H1579.12L1577.99 53.9199H1570.01L1568.88 61.4386H1562.91L1569.53 20.0217H1579.06L1585.68 61.4386ZM1570.83 48.3H1577.11L1573.97 27.3531L1570.83 48.3Z" fill="#272727"/>
<path d="M1597.46 31.4317V61.4386H1591.6V20.0131H1599.77L1606.45 44.8088V20.0131H1612.25V61.4386H1605.57L1597.46 31.4317Z" fill="#272727"/>
<path d="M1629.65 38.3545H1638.76V51.4931C1638.76 58.1178 1635.44 61.907 1629.05 61.907C1622.65 61.907 1619.34 58.1178 1619.34 51.4931V29.9587C1619.34 23.334 1622.65 19.5449 1629.05 19.5449C1635.44 19.5449 1638.76 23.334 1638.76 29.9587V33.9863H1632.6V29.55C1632.6 26.5953 1631.3 25.4713 1629.23 25.4713C1627.16 25.4713 1625.86 26.5953 1625.86 29.55V51.9189C1625.86 54.8736 1627.16 55.9465 1629.23 55.9465C1631.3 55.9465 1632.6 54.8821 1632.6 51.9189V44.2894H1629.65V38.3545Z" fill="#272727"/>
<path d="M1652.42 37.4689H1661.36V43.3869H1652.42V55.5207H1663.66V61.4387H1645.91V20.0132H1663.66V25.9311H1652.42V37.4689Z" fill="#272727"/>
<path d="M1684.26 61.4387C1683.9 60.3743 1683.66 59.7186 1683.66 56.3467V49.8412C1683.66 45.9924 1682.36 44.579 1679.41 44.579H1677.16V61.4387H1670.65V20.0132H1680.48C1687.22 20.0132 1690.13 23.1467 1690.13 29.5415V32.7942C1690.13 37.0517 1688.76 39.8361 1685.87 41.1985C1689.12 42.5609 1690.19 45.6944 1690.19 50.0115V56.3978C1690.19 58.4073 1690.25 59.8889 1690.89 61.4301H1684.26V61.4387ZM1677.16 25.9311V38.6525H1679.7C1682.13 38.6525 1683.61 37.5881 1683.61 34.2758V30.1971C1683.61 27.2424 1682.61 25.9396 1680.3 25.9396H1677.16V25.9311Z" fill="#272727"/>
<path d="M1147.49 61.4386H1140.93L1139.8 53.9199H1131.82L1130.69 61.4386H1124.71L1131.34 20.0217H1140.87L1147.49 61.4386ZM1132.64 48.3H1138.92L1135.78 27.3531L1132.64 48.3Z" fill="#272727"/>
<path d="M1151.58 20.0129H1171.7V25.9309H1164.9V61.4384H1158.39V25.9309H1151.59V20.0129H1151.58Z" fill="#272727"/>
<path d="M1175.6 20.0129H1195.72V25.9309H1188.92V61.4384H1182.41V25.9309H1175.61V20.0129H1175.6Z" fill="#272727"/>
<path d="M1208.02 37.4689H1216.96V43.3868H1208.02V55.5207H1219.26V61.4386H1201.51V20.0131H1219.26V25.931H1208.02V37.4689Z" fill="#272727"/>
<path d="M1232.05 31.4316V61.4384H1226.19V20.0129H1234.35L1241.04 44.8086V20.0129H1246.84V61.4384H1240.15L1232.05 31.4316Z" fill="#272727"/>
<path d="M1252.58 20.013H1272.7V25.9309H1265.89V61.4385H1259.39V25.9309H1252.58V20.013H1252.58Z" fill="#272727"/>
<path d="M1278.49 20.013H1284.99V61.4385H1278.49V20.013Z" fill="#272727"/>
<path d="M1292.15 29.9587C1292.15 23.334 1295.64 19.5449 1302.04 19.5449C1308.43 19.5449 1311.92 23.334 1311.92 29.9587V51.4931C1311.92 58.1178 1308.43 61.907 1302.04 61.907C1295.64 61.907 1292.15 58.1178 1292.15 51.4931V29.9587ZM1298.67 51.9104C1298.67 54.8651 1299.97 55.9891 1302.04 55.9891C1304.11 55.9891 1305.41 54.8651 1305.41 51.9104V29.5415C1305.41 26.5868 1304.11 25.4628 1302.04 25.4628C1299.97 25.4628 1298.67 26.5868 1298.67 29.5415V51.9104Z" fill="#272727"/>
<path d="M1324.88 31.4317V61.4385H1319.02V20.0131H1327.18L1333.87 44.8087V20.0131H1339.67V61.4385H1332.98L1324.88 31.4317Z" fill="#272727"/>
<path d="M71.6555 13.235L78.5868 0.30072L42.398 0.30072L35.4668 13.235H71.6555Z" fill="#272727"/>
<path d="M7.24838 65.8661L0.674805 78.1192L0.674805 80.5034H35.5863L43.4371 65.8661H7.24838Z" fill="#272727"/>
<path d="M20.5658 13.2349L27.4971 0.300659L0.674805 0.300659L0.674805 13.2349H20.5658Z" fill="#272727"/>
<path d="M1703.67 46.3583L1685.37 80.5034H1703.67V46.3583Z" fill="#272727"/>
<path d="M1703.67 13.2349V0.300598L1677.28 0.300598L1670.35 13.2349H1703.67Z" fill="#272727"/>
<path d="M1642.13 65.866L1634.28 80.5033H1670.47L1678.32 65.866H1642.13Z" fill="#272727"/>
</g>
<path d="M3235 0.00012207L1532 0.00012207V80.2029L3235 80.2029V0.00012207Z" fill="#080808"/>
<path d="M1618 80.2028H1581.81L1624.81 6.10352e-05L1661 6.10352e-05L1618 80.2028Z" fill="#272727"/>
<path d="M1669.09 80.2028H1632.9L1675.9 6.10352e-05L1712.09 6.10352e-05L1669.09 80.2028Z" fill="#272727"/>
<path d="M1720.18 80.2028H1683.99L1726.99 0L1763.18 0L1720.18 80.2028Z" fill="#272727"/>
<path d="M1771.27 80.203H1735.08L1778.08 0.000244141L1814.27 0.000244141L1771.27 80.203Z" fill="#272727"/>
<path d="M1822.36 80.203H1786.17L1829.17 0.000183105L1865.36 0.000183105L1822.36 80.203Z" fill="#272727"/>
<path d="M2179.99 80.203H2143.8L2186.8 0.000183105L2222.99 0.000183105L2179.99 80.203Z" fill="#272727"/>
<path d="M2231.08 80.203H2194.89L2237.89 0.000183105L2274.08 0.000183105L2231.08 80.203Z" fill="#272727"/>
<path d="M2282.17 80.203H2245.98L2288.98 0.000183105L2325.17 0.000183105L2282.17 80.203Z" fill="#272727"/>
<path d="M2333.26 80.2029H2297.07L2340.07 0.00012207L2376.26 0.00012207L2333.26 80.2029Z" fill="#272727"/>
<path d="M2384.35 80.2029H2348.16L2391.16 0.00012207L2427.35 0.00012207L2384.35 80.2029Z" fill="#272727"/>
<path d="M2435.44 80.2028H2399.25L2442.25 0L2478.44 0L2435.44 80.2028Z" fill="#272727"/>
<path d="M1873.45 80.203H1837.26L1880.26 0.000183105L1916.45 0.000183105L1873.45 80.203Z" fill="#272727"/>
<path d="M1924.54 80.2029H1888.35L1931.35 0.00012207L1967.54 0.00012207L1924.54 80.2029Z" fill="#272727"/>
<path d="M1975.63 80.2029H1939.44L1982.44 0.00012207L2018.63 0.00012207L1975.63 80.2029Z" fill="#272727"/>
<path d="M2026.72 80.2028H1990.53L2033.53 6.10352e-05L2069.72 6.10352e-05L2026.72 80.2028Z" fill="#272727"/>
<path d="M2077.81 80.2028H2041.62L2084.62 0L2120.81 0L2077.81 80.2028Z" fill="#272727"/>
<path d="M2128.9 80.203H2092.71L2135.71 0.000244141L2171.9 0.000244141L2128.9 80.203Z" fill="#272727"/>
<path d="M2793.07 80.2028H2756.88L2799.88 6.10352e-05L2836.07 6.10352e-05L2793.07 80.2028Z" fill="#272727"/>
<path d="M2844.16 80.2028H2807.97L2850.97 6.10352e-05L2887.16 6.10352e-05L2844.16 80.2028Z" fill="#272727"/>
<path d="M2895.25 80.2028H2859.06L2902.06 6.10352e-05L2938.25 6.10352e-05L2895.25 80.2028Z" fill="#272727"/>
<path d="M2946.34 80.203H2910.15L2953.15 0.000183105L2989.34 0.000183105L2946.34 80.203Z" fill="#272727"/>
<path d="M2997.43 80.203H2961.24L3004.24 0.000183105L3040.43 0.000183105L2997.43 80.203Z" fill="#272727"/>
<path d="M3048.52 80.203H3012.33L3055.33 0.000183105L3091.52 0.000183105L3048.52 80.203Z" fill="#272727"/>
<path d="M2486.53 80.2028H2450.34L2493.34 0L2529.53 0L2486.53 80.2028Z" fill="#272727"/>
<path d="M2537.62 80.203H2501.43L2544.43 0.000183105L2580.62 0.000183105L2537.62 80.203Z" fill="#272727"/>
<path d="M2588.71 80.203H2552.52L2595.52 0.000183105L2631.71 0.000183105L2588.71 80.203Z" fill="#272727"/>
<path d="M2639.8 80.203H2603.61L2646.61 0.000183105L2682.8 0.000183105L2639.8 80.203Z" fill="#272727"/>
<path d="M2690.89 80.2029H2654.7L2697.7 0.00012207L2733.89 0.00012207L2690.89 80.2029Z" fill="#272727"/>
<path d="M2741.98 80.2029H2705.79L2748.79 0.00012207L2784.98 0.00012207L2741.98 80.2029Z" fill="#272727"/>
<path d="M3099.61 80.2029H3063.42L3106.42 0.00012207L3142.61 0.00012207L3099.61 80.2029Z" fill="#272727"/>
<path d="M3150.7 80.2029H3114.51L3157.51 0.00012207L3193.7 0.00012207L3150.7 80.2029Z" fill="#272727"/>
<path d="M3235 12.9344L1532 12.9344V65.5657L3235 65.5657V12.9344Z" fill="#080808"/>
<path d="M1543.02 19.7126H1553.31C1559.82 19.7126 1563.02 23.3229 1563.02 29.9476V50.8945C1563.02 57.5192 1559.83 61.1295 1553.31 61.1295H1543.02V19.7126ZM1549.52 25.6305V55.2116H1553.19C1555.26 55.2116 1556.51 54.1472 1556.51 51.184V29.6581C1556.51 26.7034 1555.26 25.6305 1553.19 25.6305H1549.52V25.6305Z" fill="#272727"/>
<path d="M1591.12 61.138H1584.55L1583.43 53.6193H1575.44L1574.32 61.138H1568.34L1574.97 19.7211H1584.49L1591.12 61.138ZM1576.27 47.9994H1582.54L1579.41 27.0525L1576.27 47.9994Z" fill="#272727"/>
<path d="M1602.9 31.1311V61.1379H1597.04V19.7125H1605.2L1611.89 44.5081V19.7125H1617.69V61.1379H1611L1602.9 31.1311Z" fill="#272727"/>
<path d="M1635.08 38.0538H1644.19V51.1925C1644.19 57.8171 1640.88 61.6063 1634.49 61.6063C1628.1 61.6063 1624.78 57.8171 1624.78 51.1925V29.658C1624.78 23.0334 1628.09 19.2442 1634.49 19.2442C1640.87 19.2442 1644.19 23.0334 1644.19 29.658V33.6856H1638.04V29.2493C1638.04 26.2946 1636.73 25.1706 1634.67 25.1706C1632.6 25.1706 1631.29 26.2946 1631.29 29.2493V51.6182C1631.29 54.5729 1632.6 55.6458 1634.67 55.6458C1636.73 55.6458 1638.04 54.5814 1638.04 51.6182V43.9888H1635.08V38.0538V38.0538Z" fill="#272727"/>
<path d="M1657.86 37.1683H1666.79V43.0863H1657.86V55.2201H1669.1V61.1381H1651.35V19.7126H1669.1V25.6305H1657.86V37.1683Z" fill="#272727"/>
<path d="M1689.69 61.1379C1689.33 60.0736 1689.1 59.4179 1689.1 56.046V49.5405C1689.1 45.6917 1687.8 44.2782 1684.84 44.2782H1682.6V61.1379H1676.09V19.7125H1685.92C1692.66 19.7125 1695.56 22.846 1695.56 29.2407V32.4935C1695.56 36.751 1694.2 39.5354 1691.31 40.8978C1694.56 42.2602 1695.62 45.3937 1695.62 49.7108V56.0971C1695.62 58.1066 1695.68 59.5882 1696.33 61.1294H1689.69V61.1379ZM1682.6 25.6304V38.3518H1685.14C1687.57 38.3518 1689.05 37.2874 1689.05 33.9751V29.8964C1689.05 26.9417 1688.05 25.6389 1685.74 25.6389H1682.6V25.6304Z" fill="#272727"/>
<path d="M1916.72 61.1381H1910.16L1909.04 53.6193H1901.05L1899.92 61.1381H1893.95L1900.57 19.7211H1910.1L1916.72 61.1381ZM1901.87 47.9994H1908.15L1905.02 27.0525L1901.87 47.9994Z" fill="#272727"/>
<path d="M1920.81 19.7124H1940.93V25.6303H1934.13V61.1379H1927.62V25.6303H1920.82V19.7124H1920.81Z" fill="#272727"/>
<path d="M1944.83 19.7124H1964.95V25.6303H1958.15V61.1379H1951.65V25.6303H1944.84V19.7124H1944.83Z" fill="#272727"/>
<path d="M1977.26 37.1683H1986.19V43.0863H1977.26V55.2201H1988.5V61.1381H1970.74V19.7126H1988.5V25.6305H1977.26V37.1683Z" fill="#272727"/>
<path d="M2001.28 31.131V61.1379H1995.42V19.7124H2003.59L2010.27 44.5081V19.7124H2016.07V61.1379H2009.39L2001.28 31.131Z" fill="#272727"/>
<path d="M2021.81 19.7124H2041.93V25.6303H2035.13V61.1379H2028.62V25.6303H2021.82V19.7124H2021.81Z" fill="#272727"/>
<path d="M2047.72 19.7125H2054.23V61.1379H2047.72V19.7125Z" fill="#272727"/>
<path d="M2061.39 29.6581C2061.39 23.0334 2064.88 19.2443 2071.26 19.2443C2077.65 19.2443 2081.14 23.0334 2081.14 29.6581V51.1925C2081.14 57.8172 2077.65 61.6064 2071.26 61.6064C2064.88 61.6064 2061.39 57.8172 2061.39 51.1925V29.6581ZM2067.9 51.6098C2067.9 54.5645 2069.2 55.6885 2071.27 55.6885C2073.34 55.6885 2074.64 54.5645 2074.64 51.6098V29.2409C2074.64 26.2862 2073.34 25.1622 2071.27 25.1622C2069.2 25.1622 2067.9 26.2862 2067.9 29.2409V51.6098Z" fill="#272727"/>
<path d="M2094.11 31.1311V61.138H2088.25V19.7125H2096.42L2103.1 44.5082V19.7125H2108.9V61.138H2102.22L2094.11 31.1311Z" fill="#272727"/>
<path d="M2305.11 19.7126H2315.41C2321.91 19.7126 2325.11 23.323 2325.11 29.9477V50.8946C2325.11 57.5192 2321.92 61.1296 2315.41 61.1296H2305.11V19.7126ZM2311.62 25.6306V55.2117H2315.29C2317.36 55.2117 2318.6 54.1473 2318.6 51.1841V29.6582C2318.6 26.7035 2317.36 25.6306 2315.29 25.6306H2311.62V25.6306Z" fill="#272727"/>
<path d="M2353.21 61.138H2346.65L2345.52 53.6193H2337.54L2336.41 61.138H2330.43L2337.06 19.7211H2346.59L2353.21 61.138ZM2338.36 47.9994H2344.64L2341.5 27.0525L2338.36 47.9994Z" fill="#272727"/>
<path d="M2364.99 31.1311V61.138H2359.13V19.7125H2367.3L2373.98 44.5082V19.7125H2379.78V61.138H2373.1L2364.99 31.1311Z" fill="#272727"/>
<path d="M2397.18 38.0538H2406.29V51.1924C2406.29 57.8171 2402.97 61.6063 2396.58 61.6063C2390.19 61.6063 2386.87 57.8171 2386.87 51.1924V29.658C2386.87 23.0333 2390.18 19.2441 2396.58 19.2441C2402.97 19.2441 2406.29 23.0333 2406.29 29.658V33.6856H2400.13V29.2493C2400.13 26.2946 2398.83 25.1706 2396.76 25.1706C2394.69 25.1706 2393.39 26.2946 2393.39 29.2493V51.6182C2393.39 54.5729 2394.69 55.6458 2396.76 55.6458C2398.83 55.6458 2400.13 54.5814 2400.13 51.6182V43.9887H2397.18V38.0538Z" fill="#272727"/>
<path d="M2419.95 37.1683H2428.89V43.0863H2419.95V55.2201H2431.19V61.1381H2413.44V19.7126H2431.19V25.6305H2419.95V37.1683Z" fill="#272727"/>
<path d="M2451.79 61.138C2451.43 60.0736 2451.19 59.418 2451.19 56.046V49.5406C2451.19 45.6918 2449.89 44.2783 2446.94 44.2783H2444.69V61.138H2438.18V19.7125H2448.01C2454.75 19.7125 2457.66 22.846 2457.66 29.2408V32.4935C2457.66 36.751 2456.29 39.5354 2453.4 40.8978C2456.65 42.2602 2457.72 45.3938 2457.72 49.7109V56.0971C2457.72 58.1067 2457.78 59.5883 2458.42 61.1295H2451.79V61.138ZM2444.69 25.6304V38.3519H2447.24C2449.66 38.3519 2451.14 37.2875 2451.14 33.9751V29.8965C2451.14 26.9418 2450.14 25.639 2447.83 25.639H2444.69V25.6304Z" fill="#272727"/>
<path d="M3068.91 19.7126H3079.2C3085.71 19.7126 3088.91 23.323 3088.91 29.9477V50.8946C3088.91 57.5192 3085.71 61.1296 3079.2 61.1296H3068.91V19.7126ZM3075.41 25.6306V55.2117H3079.08C3081.15 55.2117 3082.39 54.1473 3082.39 51.1841V29.6582C3082.39 26.7035 3081.15 25.6306 3079.08 25.6306H3075.41V25.6306Z" fill="#272727"/>
<path d="M3117.01 61.1381H3110.44L3109.32 53.6193H3101.33L3100.21 61.1381H3094.23L3100.86 19.7211H3110.38L3117.01 61.1381ZM3102.16 47.9994H3108.43L3105.3 27.0525L3102.16 47.9994Z" fill="#272727"/>
<path d="M3128.78 31.1312V61.1381H3122.93V19.7126H3131.09L3137.78 44.5083V19.7126H3143.57V61.1381H3136.89L3128.78 31.1312Z" fill="#272727"/>
<path d="M3160.97 38.054H3170.08V51.1926C3170.08 57.8173 3166.77 61.6064 3160.37 61.6064C3153.98 61.6064 3150.67 57.8173 3150.67 51.1926V29.6582C3150.67 23.0335 3153.98 19.2443 3160.37 19.2443C3166.77 19.2443 3170.08 23.0335 3170.08 29.6582V33.6858H3163.92V29.2494C3163.92 26.2947 3162.62 25.1708 3160.55 25.1708C3158.48 25.1708 3157.18 26.2947 3157.18 29.2494V51.6183C3157.18 54.5731 3158.48 55.6459 3160.55 55.6459C3162.62 55.6459 3163.92 54.5816 3163.92 51.6183V43.9889H3160.97V38.054Z" fill="#272727"/>
<path d="M3183.75 37.1684H3192.68V43.0863H3183.75V55.2202H3194.99V61.1381H3177.23V19.7126H3194.99V25.6306H3183.75V37.1684Z" fill="#272727"/>
<path d="M3215.59 61.1381C3215.23 60.0737 3214.99 59.4181 3214.99 56.0461V49.5407C3214.99 45.6919 3213.69 44.2784 3210.73 44.2784H3208.48V61.1381H3201.98V19.7126H3211.8C3218.55 19.7126 3221.45 22.8462 3221.45 29.2409V32.4937C3221.45 36.7512 3220.09 39.5356 3217.19 40.898C3220.45 42.2604 3221.51 45.3939 3221.51 49.711V56.0972C3221.51 58.1068 3221.57 59.5884 3222.22 61.1296H3215.59V61.1381ZM3208.48 25.6306V38.352H3211.03C3213.46 38.352 3214.94 37.2876 3214.94 33.9753V29.8966C3214.94 26.9419 3213.93 25.6391 3211.63 25.6391H3208.48V25.6306Z" fill="#272727"/>
<path d="M2678.82 61.1381H2672.25L2671.13 53.6193H2663.14L2662.02 61.1381H2656.04L2662.66 19.7211H2672.19L2678.82 61.1381ZM2663.97 47.9994H2670.24L2667.11 27.0525L2663.97 47.9994Z" fill="#272727"/>
<path d="M2682.9 19.7124H2703.03V25.6303H2696.22V61.1379H2689.72V25.6303H2682.91V19.7124H2682.9Z" fill="#272727"/>
<path d="M2706.92 19.7124H2727.05V25.6303H2720.24V61.1379H2713.74V25.6303H2706.93V19.7124H2706.92Z" fill="#272727"/>
<path d="M2739.35 37.1683H2748.28V43.0863H2739.35V55.2201H2750.59V61.1381H2732.84V19.7126H2750.59V25.6305H2739.35V37.1683Z" fill="#272727"/>
<path d="M2763.37 31.131V61.1379H2757.51V19.7124H2765.68L2772.36 44.5081V19.7124H2778.16V61.1379H2771.48L2763.37 31.131Z" fill="#272727"/>
<path d="M2783.9 19.7125H2804.02V25.6304H2797.22V61.1379H2790.71V25.6304H2783.91V19.7125H2783.9Z" fill="#272727"/>
<path d="M2809.81 19.7125H2816.32V61.1379H2809.81V19.7125Z" fill="#272727"/>
<path d="M2823.48 29.6582C2823.48 23.0335 2826.97 19.2443 2833.36 19.2443C2839.75 19.2443 2843.24 23.0335 2843.24 29.6582V51.1926C2843.24 57.8173 2839.75 61.6064 2833.36 61.6064C2826.97 61.6064 2823.48 57.8173 2823.48 51.1926V29.6582ZM2829.99 51.6098C2829.99 54.5645 2831.3 55.6885 2833.36 55.6885C2835.43 55.6885 2836.74 54.5645 2836.74 51.6098V29.2409C2836.74 26.2862 2835.43 25.1622 2833.36 25.1622C2831.3 25.1622 2829.99 26.2862 2829.99 29.2409V51.6098Z" fill="#272727"/>
<path d="M2856.2 31.1311V61.138H2850.34V19.7125H2858.51L2865.19 44.5082V19.7125H2870.99V61.138H2864.31L2856.2 31.1311Z" fill="#272727"/>
<path d="M1602.98 12.9345L1609.91 0.000183105L1573.72 0.000183105L1566.79 12.9345H1602.98Z" fill="#272727"/>
<path d="M1538.57 65.5656L1532 77.8186V80.2028H1566.91L1574.76 65.5656H1538.57Z" fill="#272727"/>
<path d="M1551.89 12.9344L1558.82 0.00012207L1532 0.00012207V12.9344H1551.89Z" fill="#272727"/>
<path d="M3235 46.0577L3216.69 80.2029H3235V46.0577Z" fill="#272727"/>
<path d="M3235 12.9343V6.10352e-05L3208.6 6.10352e-05L3201.67 12.9343H3235Z" fill="#272727"/>
<path d="M3173.45 65.5654L3165.6 80.2027H3201.79L3209.64 65.5654H3173.45Z" fill="#272727"/>
<defs>
<clipPath id="clip0_23_298">
<rect width="1703" height="80.2028" fill="white" transform="translate(0.674805 0.300842)"/>
</clipPath>
</defs>
</svg>
