<svg width="16" height="14" viewBox="0 0 16 14" fill="none" xmlns="http://www.w3.org/2000/svg">
<path d="M15.7795 2.13255C15.1957 2.38863 14.5737 2.55837 13.9251 2.64079C14.5923 2.24244 15.1015 1.61647 15.3409 0.86196C14.7189 1.23284 14.0321 1.4948 13.3001 1.641C12.7095 1.01208 11.8676 0.622559 10.9493 0.622559C9.16751 0.622559 7.73307 2.06878 7.73307 3.84172C7.73307 4.09682 7.75465 4.34211 7.80764 4.57563C5.13203 4.44513 2.76451 3.16276 1.17406 1.20929C0.896393 1.69103 0.733522 2.24244 0.733522 2.83604C0.733522 3.95063 1.3075 4.93865 2.16306 5.51066C1.64599 5.50085 1.13874 5.35074 0.708993 5.11428C0.708993 5.12409 0.708993 5.13685 0.708993 5.1496C0.708993 6.71356 1.82456 8.01261 3.28746 8.31186C3.0255 8.38348 2.73998 8.41782 2.44367 8.41782C2.23763 8.41782 2.02963 8.40605 1.83438 8.36288C2.25137 9.63739 3.43464 10.5744 4.84161 10.6048C3.74664 11.4614 2.35635 11.9774 0.85126 11.9774C0.58733 11.9774 0.334192 11.9657 0.0810547 11.9333C1.50667 12.8526 3.19622 13.3776 5.01822 13.3776C10.9405 13.3776 14.1783 8.47178 14.1783 4.21947C14.1783 4.0772 14.1734 3.93984 14.1665 3.80346C14.8052 3.35016 15.3419 2.78404 15.7795 2.13255Z" fill="white"/>
</svg>
