<svg width="507" height="47" viewBox="0 0 507 47" fill="none" xmlns="http://www.w3.org/2000/svg">
<path d="M26.4913 14.7923H15.6834V11.4753C15.6834 9.92734 15.5451 8.94144 15.2687 8.5176C14.9923 8.09376 14.5316 7.88184 13.8866 7.88184C13.1864 7.88184 12.652 8.16747 12.2834 8.73874C11.9333 9.31 11.7582 10.1761 11.7582 11.3371C11.7582 12.8297 11.9609 13.9538 12.3663 14.7094C12.7533 15.4649 13.8498 16.3771 15.6557 17.4459C20.834 20.5234 24.0957 23.048 25.4409 25.0198C26.7862 26.9916 27.4588 30.1704 27.4588 34.5563C27.4588 37.7443 27.081 40.0939 26.3255 41.6049C25.5884 43.116 24.151 44.3876 22.0133 45.4195C19.8757 46.4331 17.3879 46.9398 14.55 46.9398C11.4357 46.9398 8.77288 46.3501 6.56153 45.1707C4.36861 43.9914 2.93123 42.4895 2.24939 40.6651C1.56756 38.8408 1.22664 36.2516 1.22664 32.8977V29.9677H12.0346V35.4132C12.0346 37.0901 12.182 38.1681 12.4769 38.6473C12.7902 39.1264 13.3338 39.3659 14.1078 39.3659C14.8817 39.3659 15.453 39.0619 15.8216 38.4538C16.2085 37.8456 16.402 36.9427 16.402 35.7449C16.402 33.1097 16.0427 31.3867 15.324 30.5758C14.5869 29.765 12.7717 28.4105 9.87856 26.5125C6.98537 24.596 5.06887 23.2047 4.12904 22.3385C3.18922 21.4724 2.40603 20.2746 1.77948 18.7451C1.17136 17.2156 0.8673 15.2622 0.8673 12.885C0.8673 9.45743 1.30036 6.95123 2.16647 5.36643C3.05101 3.78162 4.46996 2.54695 6.42332 1.66241C8.37668 0.759445 10.7355 0.307961 13.4996 0.307961C16.5218 0.307961 19.0925 0.796301 21.2117 1.77298C23.3494 2.74966 24.7591 3.98433 25.4409 5.47699C26.1412 6.95123 26.4913 9.46664 26.4913 13.0232V14.7923ZM48.1183 1.24779H67.5229V10.2038H59.7556V18.6898H67.0254V27.2035H59.7556V37.044H68.2969V46H48.1183V1.24779ZM100.29 1.24779V46H88.6524V1.24779H100.29ZM141.404 1.24779V10.2038L132.725 37.044H141.404V46H119.954V39.5042L128.91 10.2038H121.004V1.24779H141.404ZM161.428 1.24779H180.833V10.2038H173.065V18.6898H180.335V27.2035H173.065V37.044H181.607V46H161.428V1.24779ZM252.392 1.24779V10.2038H245.481V46H233.844V10.2038H226.961V1.24779H252.392ZM298.786 1.24779V46H287.149V27.2035H283.666V46H272.029V1.24779H283.666V17.2524H287.149V1.24779H298.786ZM320.468 1.24779H339.873V10.2038H332.106V18.6898H339.375V27.2035H332.106V37.044H340.647V46H320.468V1.24779ZM387.992 1.24779H396.699C402.32 1.24779 406.116 1.50578 408.088 2.02176C410.078 2.53774 411.589 3.38542 412.621 4.56481C413.653 5.7442 414.298 7.0618 414.556 8.5176C414.814 9.95498 414.943 12.7929 414.943 17.0313V32.7043C414.943 36.7215 414.749 39.412 414.362 40.7757C413.994 42.1209 413.34 43.1805 412.4 43.9545C411.46 44.71 410.299 45.2445 408.917 45.5577C407.535 45.8526 405.452 46 402.67 46H387.992V1.24779ZM399.629 8.90459V38.3432C401.306 38.3432 402.338 38.0115 402.725 37.3481C403.112 36.6663 403.306 34.8327 403.306 31.8474V14.4606C403.306 12.4335 403.241 11.1344 403.112 10.5631C402.983 9.99184 402.688 9.57721 402.228 9.31922C401.767 9.0428 400.901 8.90459 399.629 8.90459ZM456.361 1.24779L463.023 46H451.109L450.529 37.9562H446.355L445.664 46H433.612L439.527 1.24779H456.361ZM450.197 30.023C449.608 24.9553 449.018 18.699 448.428 11.2541C447.249 19.8047 446.512 26.061 446.217 30.023H450.197ZM506.791 1.24779L498.305 29.8019V46H487.525V29.8019L479.343 1.24779H490.04C491.717 9.96419 492.657 15.8335 492.86 18.8557C493.505 14.0828 494.583 8.21354 496.094 1.24779H506.791Z" fill="white"/>
</svg>
